<svg xmlns="http://www.w3.org/2000/svg" width="35.971" height="35.782" viewBox="0 0 35.971 35.782">
  <g id="analytics" transform="translate(-3.887 506.805)">
    <path id="Path_274" data-name="Path 274" d="M35.364-506.547a3.361,3.361,0,0,0-2.249,1.749,2.265,2.265,0,0,0-.282,1.241,2.544,2.544,0,0,0,.113,1.107l.134.395-2.3,1.967c-1.262,1.079-2.348,1.96-2.4,1.953a3.456,3.456,0,0,1-.564-.2,2.3,2.3,0,0,0-1.241-.2,2.069,2.069,0,0,0-1.326.268,3.621,3.621,0,0,0-.924.656l-.374.381-1.77-.613-1.77-.62v-.317a3.208,3.208,0,0,0-3.638-3.046,3.177,3.177,0,0,0-2.595,3.963c.056.212.113.437.12.5a29.407,29.407,0,0,1-2.6,2.411l-2.616,2.291-.416-.2a3.188,3.188,0,0,0-4.435,2.087,3.188,3.188,0,0,0,1.657,3.617,2.946,2.946,0,0,0,2.15.261,2.92,2.92,0,0,0,1.5-.86,2.738,2.738,0,0,0,.917-2.066,2.878,2.878,0,0,0-.113-1.114l-.148-.451.226-.2c.127-.106,1.311-1.142,2.637-2.306l2.411-2.115.388.19a3.155,3.155,0,0,0,3.638-.635l.4-.4,1.756.613,1.756.62.042.529a3.034,3.034,0,0,0,.853,1.854,3.118,3.118,0,0,0,3.123.91,3.175,3.175,0,0,0,2.249-3.843c-.056-.212-.113-.437-.12-.508a21.912,21.912,0,0,1,2.3-2.094l2.32-1.981.353.183a3.2,3.2,0,0,0,4.576-2.263,3.232,3.232,0,0,0-2.15-3.6A3.843,3.843,0,0,0,35.364-506.547Zm1.4,1.883a1.348,1.348,0,0,1,.522.578,1.321,1.321,0,0,1,.007,1.34,1.465,1.465,0,0,1-2.778-.67,1.346,1.346,0,0,1,.451-1.079A1.443,1.443,0,0,1,36.76-504.665Zm-19.115,4.548a1.646,1.646,0,0,1,1,.938,1.489,1.489,0,0,1-1.41,1.96,1.476,1.476,0,0,1-.973-2.588A1.385,1.385,0,0,1,17.645-500.117Zm9.518,3.342a1.512,1.512,0,0,1,.931,1.368,1.488,1.488,0,0,1-2.588.987,1.311,1.311,0,0,1-.36-1.135A1.445,1.445,0,0,1,27.164-496.775Zm-19.2,5.436a1.407,1.407,0,0,1,.811,1.326,1.441,1.441,0,0,1-.522,1.149,1.5,1.5,0,0,1-2.44-1.185,1.844,1.844,0,0,1,.578-1.135A1.55,1.55,0,0,1,7.965-491.339Z" fill="#475467" stroke="#475467" stroke-width="0.4"/>
    <path id="Path_275" data-name="Path 275" d="M403.626-374.887a1.059,1.059,0,0,0-.353.3c-.12.176-.127.761-.148,12.029-.014,6.515,0,11.986.021,12.155a.905.905,0,0,0,.282.55l.233.233h3.109a14.94,14.94,0,0,0,3.321-.106c.451-.233.423.67.423-12.564,0-11.951,0-12.043-.141-12.275-.261-.43-.317-.437-3.575-.437A13.432,13.432,0,0,0,403.626-374.887Zm5.2,12.579v11H404.8v-10.95c0-6.028.021-10.978.049-11s.931-.049,2.009-.049h1.96Z" transform="translate(-370.857 -122.311)" fill="#475467" stroke="#475467" stroke-width="0.4"/>
    <path id="Path_276" data-name="Path 276" d="M138.24-295.761l-.24.24v19.241l.155.2c.3.381.367.388,3.511.388s3.215-.007,3.511-.388l.155-.2v-9.547c0-8.334-.014-9.575-.106-9.751-.226-.437-.113-.423-3.582-.423h-3.166Zm5.4,9.913v8.461h-3.948v-16.922h3.948Z" transform="translate(-124.43 -195.74)" fill="#475467" stroke="#475467" stroke-width="0.4"/>
    <path id="Path_277" data-name="Path 277" d="M271.24-251.761l-.24.24v15.963l.233.233a.906.906,0,0,0,.55.282c.169.021,1.579.035,3.131.021,3.067-.021,3.032-.021,3.279-.43.134-.219.141-.43.141-8.073,0-6.825-.014-7.876-.106-8.052-.226-.437-.113-.423-3.582-.423h-3.166Zm5.4,8.256v6.8h-3.948v-13.608h3.948Z" transform="translate(-248.052 -236.638)" fill="#475467" stroke="#475467" stroke-width="0.4"/>
    <path id="Path_278" data-name="Path 278" d="M5.408-167.015c-.423.226-.409.042-.409,5.619,0,5.069,0,5.1.148,5.3.31.395.3.395,3.518.395,2.609,0,3-.014,3.215-.113.472-.226.451.021.451-5.648,0-5.641.021-5.323-.423-5.556A44.456,44.456,0,0,0,5.408-167.015Zm5.232,5.6v4.019H6.691v-8.038H10.64Z" transform="translate(-0.807 -315.517)" fill="#475467" stroke="#475467" stroke-width="0.4"/>
  </g>
</svg>
