<svg width="23" height="28" viewBox="0 0 23 28" fill="none" xmlns="http://www.w3.org/2000/svg">
<path d="M11.0874 1.18139L11.0873 1.18141C10.3222 1.3876 9.7313 1.94712 9.46653 2.69822L9.46648 2.69836C9.39127 2.91241 9.3614 3.24213 9.34128 3.90105C9.34128 3.90113 9.34128 3.90121 9.34127 3.90129L9.31414 4.71084L8.97565 4.84226C8.97549 4.84232 8.97533 4.84238 8.97517 4.84244C7.9725 5.22497 7.11256 5.76343 6.37659 6.46311L6.37625 6.46344C5.41995 7.37839 4.75115 8.41978 4.34701 9.63736C4.1741 10.1536 4.08291 10.4263 4.03288 10.9298C3.98403 11.4215 3.97379 12.1385 3.95369 13.5453L3.95346 13.562C3.9128 16.2812 3.89198 16.5215 3.65434 17.383C3.51524 17.8697 3.392 18.1809 3.11114 18.7426C2.75425 19.4514 2.31291 20.0378 1.63115 20.7196C1.24207 21.1062 1.01015 21.3503 0.881566 21.5828C0.745872 21.8283 0.728906 22.0529 0.728906 22.3746C0.728906 22.5775 0.733755 22.7184 0.753214 22.8337C0.773713 22.9552 0.809633 23.0442 0.863043 23.1454L0.863181 23.1456C1.05416 23.5058 1.34534 23.7991 1.69166 23.9668C1.69179 23.9669 1.69193 23.9669 1.69207 23.967L1.98071 24.1088L2.01163 24.124L2.04607 24.1241L4.97608 24.1394L7.79148 24.154L7.7958 24.1734C7.79583 24.1736 7.79586 24.1737 7.79589 24.1739C7.96342 24.9484 8.27423 25.5623 8.75126 26.0766C9.49743 26.8909 10.3555 27.3101 11.4258 27.3839L11.4258 27.3839C12.5844 27.4632 13.6062 27.0588 14.4674 26.1923L14.4675 26.1922C15.0575 25.597 15.3549 25.0378 15.5434 24.1741C15.5434 24.1739 15.5434 24.1738 15.5435 24.1737L15.5479 24.154L18.3633 24.1394L21.2933 24.1241L21.3277 24.124L21.3586 24.1088L21.6473 23.967C21.6474 23.9669 21.6475 23.9669 21.6477 23.9668C21.994 23.7991 22.2852 23.5058 22.4762 23.1456L22.4763 23.1454C22.5297 23.0442 22.5656 22.9552 22.5861 22.8337C22.6056 22.7184 22.6104 22.5775 22.6104 22.3746C22.6104 22.0499 22.5921 21.8241 22.4557 21.5787C22.3265 21.3463 22.0945 21.1034 21.708 20.7194L21.6022 20.8258M11.0874 1.18139L18.857 9.70572C19.1902 10.7155 19.1953 10.7311 19.2359 13.5642L19.3859 13.562C19.3859 13.562 19.3859 13.5621 19.3859 13.5621C19.4266 16.2723 19.4526 16.577 19.6796 17.3716C20.0528 18.6605 20.6786 19.695 21.7081 20.7195L21.6022 20.8258M11.0874 1.18139C12.2425 0.870815 13.4353 1.51493 13.8569 2.66075L13.8569 2.66074L13.8578 2.66326C13.9477 2.92176 13.9728 3.17316 13.998 3.90067L13.998 3.90085L14.0252 4.71084L11.0874 1.18139ZM21.6022 20.8258C20.5562 19.7848 19.9163 18.7286 19.5355 17.4134L22.3436 23.0753C22.4401 22.8925 22.4604 22.7808 22.4604 22.3746C22.4604 21.7347 22.3843 21.6027 21.6022 20.8258ZM21.2044 22.5656L21.2045 22.5656C21.1919 22.5904 21.1826 22.6139 21.1765 22.6295C21.1758 22.6313 21.1751 22.6329 21.1745 22.6344C21.1675 22.6522 21.165 22.6571 21.1635 22.6596C21.1634 22.6598 21.1641 22.6591 21.1634 22.6596C21.1614 22.6611 21.1533 22.6665 21.1327 22.6737C21.0887 22.6891 21.0089 22.7055 20.8617 22.7196C20.7167 22.7336 20.5154 22.7447 20.2335 22.7534C19.2399 22.784 17.2822 22.7838 13.3741 22.7833C12.8428 22.7832 12.2755 22.7832 11.6697 22.7832C11.0638 22.7832 10.4965 22.7832 9.96526 22.7833C6.05714 22.7838 4.09943 22.784 3.10579 22.7534C2.82397 22.7447 2.62262 22.7336 2.47763 22.7196C2.33042 22.7055 2.25068 22.6891 2.20667 22.6737C2.18599 22.6665 2.17791 22.6611 2.17596 22.6596C2.17522 22.6591 2.17596 22.6598 2.17586 22.6596C2.1743 22.6571 2.17181 22.6522 2.16479 22.6344C2.16419 22.6329 2.16354 22.6313 2.16286 22.6295C2.15673 22.6139 2.14748 22.5904 2.13488 22.5656L2.13358 22.5631L2.13356 22.5631C2.09671 22.4939 2.07935 22.4414 2.07431 22.3975C2.06957 22.3563 2.0749 22.3154 2.09576 22.267C2.142 22.1595 2.25957 22.0231 2.50209 21.8061C3.59649 20.8361 4.53488 19.3079 4.97365 17.7954L4.97374 17.7951C5.11478 17.3053 5.19244 16.9928 5.23866 16.4511C5.28429 15.9165 5.29953 15.1562 5.3198 13.7696C5.34016 12.3775 5.35159 11.6701 5.39349 11.2004C5.43451 10.7407 5.504 10.5148 5.64735 10.0822C6.13303 8.62033 7.21007 7.31918 8.58511 6.53983L8.58515 6.5398C9.24674 6.16457 10.1617 5.87058 10.987 5.76607C11.4426 5.71227 12.2951 5.74679 12.8199 5.84579C15.0878 6.27761 16.9731 7.91566 17.692 10.0823C17.8354 10.5175 17.9048 10.7422 17.9458 11.2005C17.9877 11.6688 17.9992 12.3749 18.0195 13.7693C18.0195 13.7694 18.0195 13.7695 18.0195 13.7695L18.1695 13.7674C18.2051 16.545 18.2254 16.7786 18.5097 17.7536L21.2044 22.5656ZM21.2044 22.5656L21.2058 22.5631C21.2426 22.4939 21.26 22.4414 21.265 22.3975C21.2698 22.3563 21.2644 22.3154 21.2436 22.267C21.1973 22.1595 21.0798 22.0231 20.8372 21.8061L21.2044 22.5656ZM13.5591 25.1634L13.5601 25.1623C13.6678 25.0454 13.7982 24.8515 13.9115 24.6452C14.0127 24.4611 14.093 24.2804 14.1314 24.1495H11.6697H9.20831C9.24861 24.2844 9.33034 24.4656 9.43366 24.6507C9.54903 24.8574 9.68342 25.0548 9.79988 25.183C10.2937 25.7198 10.9433 26.0022 11.6936 25.9975C12.4447 25.9878 13.0648 25.7105 13.5591 25.1634L13.5591 25.1634ZM12.5457 3.12769C12.5307 3.04031 12.5093 3.00595 12.4356 2.90042C12.3614 2.79582 12.2158 2.66444 12.1193 2.60978C11.6267 2.33758 11.0314 2.54062 10.818 3.04417C10.7986 3.09236 10.7813 3.16761 10.7698 3.29823C10.7584 3.4286 10.7533 3.60484 10.7533 3.85001V4.37539H11.6747H12.588L12.5759 3.78203C12.5759 3.78201 12.5759 3.782 12.5759 3.78198C12.5682 3.40676 12.5642 3.23539 12.5457 3.12769Z" fill="#475467" stroke="#475467" stroke-width="0.3"/>
</svg>
