<svg width="45" height="44" viewBox="0 0 45 44" fill="none" xmlns="http://www.w3.org/2000/svg">
<path d="M9.70455 0.32681C8.82051 0.645062 8.03372 1.43185 7.74199 2.29821L7.58286 2.7579L5.25785 2.80211L2.93284 2.84631L2.35822 3.12036C1.61563 3.47397 0.987965 4.10164 0.643191 4.83539L0.369141 5.41001V20.2618V35.1136L0.59899 35.5998C1.05869 36.5722 1.9604 37.3148 3.0124 37.5977C3.3837 37.695 5.4435 37.7215 14.5667 37.7215H25.6702L25.7763 38.0928C25.8382 38.3049 26.0769 38.8265 26.2979 39.2509C27.5532 41.6466 29.8075 43.3263 32.5038 43.8744C33.6 44.0954 35.5537 44.0158 36.5792 43.7064C37.64 43.3881 38.2412 43.1052 39.1164 42.5306C40.8491 41.3725 42.1928 39.5249 42.7232 37.5358C42.8382 37.138 42.9796 36.864 43.2271 36.5899C43.4128 36.3777 43.6957 35.9446 43.846 35.6175L44.1289 35.0252V20.2176V5.41001L43.8548 4.83539C43.51 4.10164 42.9177 3.50933 42.1575 3.13804L41.574 2.84631L39.2401 2.80211L36.9151 2.7579L36.703 2.23632C36.4466 1.60866 36.1195 1.18432 35.5537 0.759987C35.0056 0.33565 34.4045 0.150003 33.6 0.150003C32.1679 0.150003 30.9833 0.998676 30.4882 2.37777L30.3379 2.80211H22.249H14.1601L14.0098 2.37777C13.5147 0.980995 12.3478 0.150003 10.8892 0.158843C10.4206 0.158843 10.0228 0.211885 9.70455 0.32681ZM11.9765 1.75895C12.171 1.89155 12.4362 2.17444 12.56 2.38661C13.4529 3.89831 12.1887 5.72826 10.5002 5.37465C9.84599 5.24204 9.39513 4.91495 9.12108 4.36685C8.60834 3.32369 8.99732 2.1214 10.0051 1.63518C10.5444 1.38765 11.4903 1.44069 11.9765 1.75895ZM34.431 1.6175C35.4742 2.05068 35.9073 3.30601 35.3769 4.36685C34.6697 5.77246 32.5922 5.7813 31.8761 4.37569C31.3546 3.35905 31.7612 2.17444 32.8132 1.62634C33.158 1.44069 34.0067 1.44069 34.431 1.6175ZM7.66243 4.2696C7.66243 4.56134 8.12212 5.35697 8.51994 5.76362C9.34209 6.59462 10.5355 6.93939 11.6494 6.6565C12.6837 6.39129 13.6739 5.50725 13.9921 4.54365L14.1336 4.12816H22.302C29.0737 4.12816 30.4705 4.14584 30.4705 4.24308C30.4705 4.5525 31.0451 5.48073 31.496 5.88739C32.1413 6.47969 32.7779 6.71838 33.6972 6.71838C34.6166 6.71838 35.2531 6.47969 35.8985 5.88739C36.3494 5.48073 36.924 4.5525 36.924 4.24308C36.924 4.08396 40.8314 4.07512 41.3795 4.23424C41.8657 4.37569 42.5995 5.10944 42.7409 5.59566C42.8116 5.83435 42.847 6.64766 42.847 7.96487V9.96279H22.249H1.65099V7.94719C1.65099 6.78026 1.69519 5.79898 1.74823 5.59566C1.86316 5.16248 2.63227 4.37569 3.06545 4.24308C3.25109 4.1812 4.23237 4.14584 5.52306 4.137C7.40606 4.12816 7.66243 4.14584 7.66243 4.2696ZM42.847 22.1801L42.8382 32.9919L42.6172 32.3289C41.2911 28.4303 37.4367 25.9373 33.3348 26.3263C31.2043 26.5208 29.3832 27.3871 27.8538 28.9165C26.6869 30.0923 25.9531 31.3741 25.5022 33.0361C25.3343 33.6638 25.2989 34.0085 25.2989 35.1401V36.4838L14.3369 36.4661C4.00252 36.4396 3.35718 36.4308 3.02124 36.2805C2.53503 36.0595 2.11069 35.6352 1.86316 35.1136L1.65099 34.6716V23.02V11.3772H22.249H42.847V22.1801ZM35.6686 27.6965C39.2136 28.4214 41.7243 31.489 41.7243 35.1136C41.7243 38.4375 39.6468 41.293 36.482 42.3361C35.757 42.566 35.4742 42.6102 34.4487 42.6455C33.4409 42.6809 33.1315 42.6632 32.4684 42.5041C29.7456 41.8499 27.6947 39.9227 26.8725 37.2176C26.6692 36.5369 26.6427 36.2805 26.6338 35.1578C26.625 34.0881 26.6603 33.761 26.8195 33.1952C27.6593 30.3044 29.8959 28.2181 32.7779 27.6523C33.432 27.5197 34.9349 27.5462 35.6686 27.6965Z" fill="#172667"/>
<path d="M12.2604 13.6494C11.8184 13.8173 11.8184 13.835 11.8184 16.0805C11.8184 18.0695 11.8272 18.1933 11.9952 18.3613C12.1631 18.5292 12.2869 18.5381 14.2406 18.5381C16.1413 18.5381 16.3269 18.5204 16.5126 18.3701C16.7248 18.2022 16.7248 18.2022 16.7248 16.1158C16.7248 13.3842 16.9634 13.6405 14.3555 13.614C13.277 13.6052 12.3311 13.6229 12.2604 13.6494ZM15.3545 16.0628V17.212H14.2495H13.1444V16.0628V14.9135H14.2495H15.3545V16.0628Z" fill="#172667"/>
<path d="M19.9778 13.6759C19.633 13.8173 19.5977 14.0207 19.5977 16.1335C19.5977 18.1314 19.5977 18.158 19.801 18.3436C20.0043 18.5292 20.075 18.5381 22.0464 18.5381C23.9206 18.5381 24.1062 18.5204 24.2919 18.3701C24.504 18.2022 24.504 18.2022 24.504 16.1158C24.504 13.3842 24.7427 13.6405 22.1348 13.614C21.0563 13.6052 20.0839 13.6317 19.9778 13.6759ZM23.2045 16.0805L23.231 17.212H22.073H20.9237V16.0628V14.9047L22.0553 14.9312L23.178 14.9577L23.2045 16.0805Z" fill="#172667"/>
<path d="M27.7571 13.6759C27.4123 13.8173 27.377 14.0207 27.377 16.107V18.1049L27.598 18.3171L27.8101 18.5381H29.8346C31.6999 18.5381 31.8855 18.5204 32.0712 18.3701C32.2833 18.2022 32.2833 18.1756 32.3099 16.2308C32.3364 14.1179 32.301 13.8615 31.9209 13.6847C31.6557 13.5698 28.0488 13.561 27.7571 13.6759ZM30.9838 16.0805L31.0103 17.212H29.8523H28.703V16.0628V14.9047L29.8346 14.9312L30.9573 14.9577L30.9838 16.0805Z" fill="#172667"/>
<path d="M35.5364 13.6759C35.1916 13.8173 35.1562 14.0207 35.1562 16.107V18.1049L35.3773 18.3171L35.5894 18.5381H37.6315H39.6737L39.8858 18.3171L40.1068 18.1049V16.1777C40.1068 15.1169 40.0803 14.1621 40.0538 14.0472C39.9389 13.6405 39.6471 13.5875 37.6139 13.5963C36.5795 13.5963 35.6425 13.6317 35.5364 13.6759ZM38.7631 16.0805L38.7896 17.212H37.6315H36.4823V16.1247C36.4823 15.5235 36.5088 15.0019 36.5442 14.9666C36.5795 14.9401 37.0834 14.9224 37.6669 14.9312L38.7366 14.9577L38.7631 16.0805Z" fill="#172667"/>
<path d="M4.26696 20.8454L4.03711 21.0222V23.1351V25.2479L4.26696 25.4247C4.48797 25.6015 4.61173 25.6104 6.44168 25.6104C8.34236 25.6104 8.66061 25.5661 8.82858 25.3098C8.86394 25.2567 8.8993 24.2666 8.8993 23.1174V21.0222L8.66945 20.8454C8.44844 20.6686 8.32468 20.6598 6.4682 20.6598C4.61173 20.6598 4.48797 20.6686 4.26696 20.8454ZM7.57325 23.2235V24.3727H6.4682H5.36316V23.2235V22.0742H6.4682H7.57325V23.2235Z" fill="#172667"/>
<path d="M12.0482 20.8454L11.8184 21.0222V23.1351V25.2479L12.0482 25.4247C12.2692 25.6015 12.393 25.6104 14.3025 25.6104C16.1855 25.6104 16.3358 25.6015 16.4949 25.4424C16.7424 25.1949 16.7866 24.7263 16.7513 22.7903L16.7248 21.0841L16.4772 20.8719C16.2297 20.6598 16.212 20.6598 14.2583 20.6598C12.393 20.6598 12.2692 20.6686 12.0482 20.8454ZM15.3545 23.2235V24.3727H14.2495H13.1444V23.2235V22.0742H14.2495H15.3545V23.2235Z" fill="#172667"/>
<path d="M19.8187 20.8808L19.5977 21.0929V23.1704V25.2479L19.8275 25.4247C20.0485 25.6015 20.1723 25.6104 22.073 25.6104C23.9206 25.6104 24.1062 25.5927 24.2919 25.4424C24.504 25.2744 24.504 25.2744 24.504 23.1793V21.0841L24.2565 20.8719C24.009 20.6598 23.9913 20.6598 22.0199 20.6598H20.0308L19.8187 20.8808ZM23.2045 23.1969L23.178 24.3285L22.0553 24.355L20.9237 24.3815V23.2235V22.0742H22.073H23.231L23.2045 23.1969Z" fill="#172667"/>
<path d="M27.5626 20.978C27.3858 21.199 27.377 21.3228 27.377 23.2234V25.239L27.651 25.4689L27.9251 25.6987H29.808C31.028 25.6987 31.7794 25.6634 31.9209 25.6015C32.301 25.4247 32.3364 25.1683 32.3099 23.0555C32.2833 21.1106 32.2833 21.0841 32.0712 20.9161C31.8855 20.7658 31.6999 20.7481 29.808 20.7481H27.7394L27.5626 20.978ZM30.9838 23.1527L31.0103 24.2843H29.8523H28.703V23.135V21.9769L29.8346 22.0035L30.9573 22.03L30.9838 23.1527Z" fill="#172667"/>
<path d="M4.21392 27.9972C4.04595 28.1652 4.03711 28.289 4.03711 30.278C4.03711 32.2141 4.05479 32.3997 4.19624 32.5323C4.33768 32.6649 4.62941 32.6826 6.48589 32.6826C8.43076 32.6826 8.61641 32.6649 8.74901 32.5235C8.88162 32.382 8.8993 32.0903 8.8993 30.225C8.8993 28.121 8.8993 28.0945 8.70481 27.9619C8.53685 27.8469 8.16555 27.8204 6.45052 27.8204C4.50565 27.8204 4.38188 27.8293 4.21392 27.9972ZM7.57325 30.2515V31.3566H6.4682H5.36316V30.2515V29.1465H6.4682H7.57325V30.2515Z" fill="#172667"/>
<path d="M11.9952 27.9972C11.8272 28.1652 11.8184 28.289 11.8184 30.2338C11.8184 31.9489 11.8449 32.3202 11.9598 32.4881C12.0924 32.6826 12.1189 32.6826 14.2406 32.6826C16.3093 32.6826 16.3977 32.6738 16.5568 32.497C16.7159 32.329 16.7248 32.1522 16.7248 30.2338C16.7248 28.1564 16.7248 28.1564 16.5126 27.9884C16.3269 27.8381 16.1413 27.8204 14.2406 27.8204C12.2869 27.8204 12.1631 27.8293 11.9952 27.9972ZM15.3545 30.2515V31.3566H14.2495H13.1444V30.2515V29.1465H14.2495H15.3545V30.2515Z" fill="#172667"/>
<path d="M35.3328 34.2736L32.2829 37.3765L31.1955 35.8295C30.2938 34.5388 30.0728 34.2736 29.843 34.2294C29.3214 34.1145 28.9147 34.636 29.1357 35.1311C29.3214 35.5466 31.7525 38.8617 31.947 38.9678C32.0531 39.0208 32.2299 39.0474 32.3448 39.0208C32.4597 38.9855 34.0686 37.4384 35.934 35.582C39.143 32.3641 39.311 32.1784 39.311 31.869C39.311 31.6215 39.2579 31.4977 39.0811 31.3651C38.5772 30.9673 38.6126 30.9408 35.3328 34.2736Z" fill="#172667"/>
</svg>
