<svg width="18" height="25" viewBox="0 0 18 25" fill="none" xmlns="http://www.w3.org/2000/svg">
<path d="M8.06024 0.0301437C7.62063 0.0643363 6.62417 0.249951 6.12594 0.391604C5.43233 0.586988 4.63614 0.904487 4.53356 1.0266C4.40656 1.17314 4.42122 1.39295 4.56776 1.5346C4.71918 1.69091 4.86083 1.68602 5.20764 1.5346C5.92079 1.2171 7.07355 0.92891 8.02117 0.826334C11.0154 0.508835 14.1318 1.71533 16.2078 4.00132C16.5399 4.36278 16.579 4.39209 16.7548 4.39209C16.9014 4.39209 16.9649 4.36278 17.043 4.26509C17.1896 4.07948 17.17 3.94271 16.9551 3.67405C16.7157 3.37609 15.9977 2.6776 15.5825 2.34056C14.7131 1.62741 13.3893 0.904487 12.3001 0.543027C10.9812 0.103413 9.45724 -0.0773172 8.06024 0.0301437Z" fill="#475467"/>
<path d="M8.15639 1.59345C5.26959 1.88653 2.73449 3.48868 1.25934 5.95052C0.9223 6.51713 0.502224 7.45009 0.453378 7.73828C0.419186 7.95809 0.599916 8.15347 0.844146 8.15347C1.05907 8.15347 1.13234 8.06555 1.33749 7.55755C1.79664 6.42432 2.32418 5.62813 3.19364 4.75867C4.39525 3.56195 5.70432 2.85368 7.36997 2.50199C7.91216 2.38964 8.09777 2.37011 8.93792 2.37011C9.739 2.37011 9.97834 2.38476 10.4473 2.47757C12.2204 2.83414 13.6662 3.62545 14.9264 4.9394C15.7177 5.7649 16.2844 6.67344 16.7044 7.81155C16.9487 8.4612 17.061 8.70054 17.2271 8.92035C17.3248 9.05224 17.3785 9.08154 17.5348 9.08154C17.6814 9.08154 17.7449 9.05224 17.823 8.95454C17.9598 8.7787 17.9549 8.69566 17.7595 8.30978C17.6716 8.12905 17.5104 7.75293 17.4078 7.46963C16.8265 5.87725 15.7617 4.44117 14.4087 3.42029C13.3389 2.61434 12.0787 2.02818 10.838 1.76442C10.0223 1.58857 8.90862 1.5153 8.15639 1.59345Z" fill="#475467"/>
<path d="M2.95497 1.88643C2.19785 2.40908 1.31863 3.22969 0.791091 3.894C0.639668 4.08938 0.585938 4.20173 0.585938 4.32384C0.585938 4.54853 0.727591 4.6853 0.957167 4.6853C1.10859 4.6853 1.1672 4.65111 1.31374 4.48015C2.16366 3.49835 2.66189 3.04896 3.68766 2.32604C3.8635 2.19904 3.927 2.01831 3.85373 1.84247C3.72185 1.52008 3.46297 1.52985 2.95497 1.88643Z" fill="#475467"/>
<path d="M8.05879 3.17592C4.90334 3.58134 2.40243 5.89664 1.69904 9.07163C1.55251 9.71639 1.54274 11.2746 1.67462 11.9389C1.7772 12.4371 2.21193 13.7755 2.43173 14.2688C2.65154 14.7475 2.91042 14.8648 3.17419 14.601C3.31096 14.4642 3.29631 14.2884 3.10581 13.839C2.87135 13.2773 2.5685 12.3541 2.46104 11.8656C2.32916 11.2795 2.32916 9.81897 2.46104 9.22793C2.73946 7.93352 3.36958 6.78563 4.29765 5.85756C6.70087 3.45434 10.462 3.24919 13.1192 5.37887C13.3488 5.5596 13.5882 5.72568 13.6517 5.74033C13.9154 5.80383 14.1743 5.48145 14.0668 5.22256C13.9203 4.86599 12.5575 3.97211 11.6148 3.61065C10.5744 3.21011 9.14317 3.03426 8.05879 3.17592Z" fill="#475467"/>
<path d="M8.71996 4.80738C8.56365 4.9588 8.55877 5.18838 8.71019 5.3398C8.803 5.43261 8.89092 5.45703 9.29146 5.48634C11.0255 5.60357 12.5837 6.59514 13.4238 8.10448C13.5069 8.25102 13.6876 8.66621 13.8195 9.02767C14.4007 10.5614 15.1823 11.7044 16.6428 13.1454C17.3315 13.8243 17.4194 13.883 17.6588 13.7902C17.7467 13.756 17.8786 13.5215 17.8786 13.4043C17.8786 13.3603 17.5464 12.9793 17.1361 12.5592C15.7294 11.0987 15.0064 10.0339 14.5571 8.7639C14.0979 7.44995 13.3115 6.4193 12.232 5.69637C11.4553 5.17861 10.7129 4.89042 9.81899 4.75365C9.11073 4.65107 8.86161 4.66084 8.71996 4.80738Z" fill="#475467"/>
<path d="M6.99898 5.02708C6.64729 5.15408 5.99764 5.48623 5.64595 5.72069C5.19168 6.02354 4.40037 6.84415 4.07799 7.33749C3.0913 8.8566 2.86661 10.6199 3.42345 12.4272C3.85818 13.834 4.69833 15.5436 5.70456 17.0578C6.09533 17.6538 6.22233 17.7759 6.42748 17.7759C6.53494 17.7759 6.78894 17.5072 6.78894 17.3949C6.78894 17.3411 6.63752 17.0676 6.45679 16.7892C5.2161 14.9086 4.2343 12.7936 3.9803 11.4601C3.88749 10.9668 3.88749 10.1901 3.9803 9.65279C4.27826 7.95295 5.45545 6.50223 7.07225 5.84769C7.57048 5.64742 7.71701 5.53019 7.71701 5.33481C7.71701 5.19316 7.47278 4.92939 7.3409 4.93427C7.29205 4.93427 7.14063 4.97823 6.99898 5.02708Z" fill="#475467"/>
<path d="M14.463 6.27771C14.3214 6.45844 14.336 6.62452 14.5119 6.8834C14.7414 7.22044 15.0882 7.93359 15.269 8.43182C15.6158 9.38431 16.2166 10.3857 16.9444 11.216C17.2277 11.5335 17.384 11.6703 17.4866 11.6947C17.7455 11.7533 18.0141 11.4945 17.9555 11.2502C17.936 11.1867 17.7699 10.962 17.5794 10.7569C17.174 10.3075 16.5585 9.40385 16.3045 8.88608C16.2068 8.68581 16.0554 8.31947 15.9675 8.08012C15.7135 7.34744 15.142 6.30702 14.9466 6.19955C14.7756 6.10675 14.5705 6.14094 14.463 6.27771Z" fill="#475467"/>
<path d="M8.28905 6.29722C7.34144 6.45842 6.4964 6.91757 5.8321 7.63072C5.28991 8.21687 4.91379 8.94468 4.75749 9.71156C4.63049 10.3417 4.67933 11.2014 4.8796 11.8559C5.59275 14.1956 7.14117 16.7356 9.21712 18.9728C9.56882 19.3489 10.0964 19.8911 10.3943 20.1793C10.8925 20.6677 10.9512 20.7068 11.127 20.7068C11.3663 20.7068 11.4982 20.5749 11.4982 20.3404C11.4982 20.1841 11.4103 20.0816 10.5213 19.1828C9.4467 18.0935 9.08036 17.6881 8.54305 16.9945C7.23886 15.324 6.2424 13.5069 5.69045 11.8168C5.46575 11.1232 5.41202 10.4149 5.53902 9.81413C5.63183 9.36964 5.97375 8.66137 6.26683 8.30479C7.62475 6.67334 10.1305 6.61472 11.5666 8.18268C11.8988 8.53926 12.143 8.97398 12.3579 9.58944C12.5484 10.1219 12.9245 10.9181 13.0466 11.0402C13.1736 11.1672 13.4521 11.1623 13.5791 11.0353C13.7256 10.8887 13.7012 10.708 13.4618 10.2C13.3446 9.94602 13.1785 9.5406 13.0906 9.30125C12.524 7.6698 11.3517 6.62938 9.73001 6.31676C9.34412 6.24349 8.67005 6.23373 8.28905 6.29722Z" fill="#475467"/>
<path d="M8.36795 7.87965C7.89902 7.98711 7.39591 8.2753 7.03445 8.64165C6.35061 9.33037 6.09172 10.3122 6.34572 11.2744C6.48249 11.7922 6.67787 11.9485 6.9856 11.7922C7.18099 11.6896 7.21518 11.5236 7.10772 11.123C6.90745 10.3464 7.10772 9.6381 7.66945 9.11545C8.07487 8.73934 8.38748 8.62211 8.98829 8.61722C9.39371 8.61722 9.4914 8.63676 9.74052 8.75399C10.3413 9.03241 10.6344 9.37922 10.8933 10.1314C11.3134 11.3282 12.1779 12.8229 13.0914 13.917C14.2978 15.3726 17.0186 17.8735 17.3947 17.8735C17.5949 17.8735 17.7806 17.683 17.7806 17.4779C17.7806 17.302 17.805 17.3216 16.7548 16.4521C15.9537 15.7878 14.1269 13.9707 13.6189 13.3309C12.8032 12.3149 12.0216 10.9618 11.6797 9.99468C11.4501 9.34014 11.284 9.0373 10.9763 8.71003C10.4488 8.14342 9.85775 7.865 9.1104 7.8308C8.83687 7.82103 8.55844 7.84057 8.36795 7.87965Z" fill="#475467"/>
<path d="M0.29309 8.94965C0.0977066 9.04734 0.0390914 9.31111 0.0146684 10.2392C-0.0244084 11.5092 0.0977066 12.32 0.532436 13.6242C1.50447 16.5257 3.45342 19.7104 5.72965 22.1039C6.00318 22.3921 6.09599 22.4653 6.21322 22.4653C6.40861 22.4653 6.52095 22.3969 6.58934 22.2309C6.67237 22.0306 6.61376 21.9183 6.15461 21.4151C4.54757 19.6665 3.35573 17.9324 2.3202 15.8614C1.60216 14.4204 1.10393 13.0674 0.893896 11.9879C0.810858 11.5434 0.776666 10.1415 0.830396 9.43323C0.854819 9.14015 0.84505 9.11573 0.71805 9.00338C0.561743 8.8715 0.468936 8.86173 0.29309 8.94965Z" fill="#475467"/>
<path d="M8.58133 9.44281C8.13195 9.60401 7.81445 10.0485 7.81445 10.5272C7.81445 10.8984 8.08799 11.6409 8.62041 12.7204C9.56802 14.6449 10.8722 16.335 12.8749 18.2253C14.2963 19.5686 16.0303 20.9509 16.299 20.9509C16.4748 20.9509 16.6556 20.7458 16.6556 20.5455C16.6556 20.355 16.6214 20.3159 15.9473 19.8177C14.2914 18.5868 12.1373 16.5157 11.0041 15.065C10.0321 13.8145 9.26029 12.4664 8.77183 11.1622C8.5618 10.6053 8.55203 10.4393 8.7181 10.2781C9.00141 9.98989 9.25052 10.1804 9.50452 10.8642C10.12 12.5348 11.2679 14.3274 12.66 15.7879C13.0117 16.1543 13.0898 16.2129 13.2266 16.2129C13.4122 16.2129 13.6271 16.0321 13.6271 15.8709C13.6271 15.7049 13.5392 15.5828 13.124 15.1383C11.8442 13.7852 10.8331 12.1782 10.1884 10.4783C9.94414 9.83358 9.81714 9.66262 9.45079 9.49166C9.17726 9.35978 8.86464 9.34512 8.58133 9.44281Z" fill="#475467"/>
<path d="M13.907 11.7776C13.7751 11.8802 13.7311 12.0707 13.7995 12.2319C14.0096 12.735 16.1344 14.9672 17.2139 15.8172C17.4483 16.0028 17.6437 16.0126 17.8049 15.8465C18.0442 15.612 17.9661 15.4411 17.3897 14.9428C16.7254 14.3713 15.2454 12.862 14.8057 12.3051C14.5811 12.0218 14.371 11.7776 14.3417 11.7581C14.2538 11.6995 13.9949 11.7141 13.907 11.7776Z" fill="#475467"/>
<path d="M7.24814 12.5495C7.11626 12.6032 6.98438 12.7839 6.98438 12.9109C6.98438 13.0428 7.58518 14.176 8.0541 14.9283C8.86006 16.2227 9.75883 17.3266 11.1607 18.7285C12.8019 20.3746 14.9902 22.1721 15.3468 22.1721C15.5178 22.1721 15.7278 21.9816 15.7278 21.8204C15.7278 21.6446 15.6155 21.5225 15.1026 21.1366C13.1536 19.6712 10.9995 17.605 9.74417 15.9931C9.06521 15.1236 8.44487 14.1418 7.91733 13.1014C7.7073 12.6911 7.63891 12.5983 7.51191 12.5543C7.42887 12.525 7.36049 12.5006 7.3556 12.5055C7.35072 12.5055 7.30187 12.525 7.24814 12.5495Z" fill="#475467"/>
<path d="M3.24907 15.407C3.18068 15.4705 3.12695 15.5731 3.12695 15.6317C3.12695 15.8857 4.16249 17.6295 4.95868 18.7285C6.17494 20.404 8.14344 22.4701 10.0777 24.1065C10.9228 24.8245 11.0302 24.8734 11.2598 24.6389C11.4161 24.4875 11.421 24.2677 11.2745 24.1114C11.211 24.0479 10.8886 23.7646 10.5515 23.4813C9.29132 22.4213 7.77221 20.9315 6.76598 19.7543C5.72556 18.538 4.80725 17.2045 3.98664 15.7147C3.88895 15.534 3.76684 15.3631 3.7131 15.3337C3.5568 15.2507 3.37118 15.28 3.24907 15.407Z" fill="#475467"/>
<path d="M0.122115 16.0909C0.0537306 16.1544 0 16.2668 0 16.3352C0 16.4035 0.151423 16.7601 0.337037 17.1314C1.50446 19.4662 3.09683 21.6594 5.13371 23.75C5.75894 24.3947 5.85663 24.468 5.99829 24.468C6.20832 24.468 6.39882 24.2824 6.39882 24.0772C6.39882 23.9503 6.28648 23.8135 5.65636 23.1589C3.68299 21.1221 2.40811 19.3734 1.11369 16.9506C0.879228 16.5061 0.683844 16.1251 0.683844 16.1105C0.683844 16.0665 0.444498 15.9688 0.337037 15.9688C0.283307 15.9688 0.185615 16.0225 0.122115 16.0909Z" fill="#475467"/>
<path d="M14.0911 16.6769C13.8762 16.8869 13.9202 17.0676 14.2768 17.3949C15.0876 18.1569 16.6946 19.4611 16.89 19.5148C17.0512 19.5588 17.2759 19.4464 17.3394 19.2852C17.4371 19.0606 17.3345 18.9091 16.8607 18.5477C16.3576 18.1716 15.7421 17.6636 15.0192 17.0188C14.4428 16.501 14.3109 16.4522 14.0911 16.6769Z" fill="#475467"/>
<path d="M7.05812 18.3377C6.83831 18.5526 6.88716 18.6894 7.38539 19.2755C8.47465 20.5504 10.3699 22.3626 11.8841 23.574C12.5924 24.1406 12.7145 24.1992 12.9489 24.0722C13.0759 24.0087 13.1492 23.8133 13.1101 23.6521C13.0906 23.5789 12.9099 23.3981 12.6266 23.1734C11.2345 22.0598 9.85699 20.7995 8.75796 19.6223C8.35254 19.1827 7.93735 18.7285 7.83966 18.6063C7.74196 18.4842 7.61985 18.3475 7.56123 18.2986C7.41958 18.1765 7.19977 18.1912 7.05812 18.3377Z" fill="#475467"/>
<path d="M0.756881 20.2916C0.688496 20.3551 0.634766 20.4626 0.634766 20.531C0.634766 20.7263 1.45538 21.8791 2.33461 22.9146C2.66676 23.3152 2.70584 23.3445 2.8768 23.3445C3.0038 23.3445 3.09172 23.3103 3.16499 23.2321C3.37014 23.0172 3.31641 22.8853 2.73026 22.1722C2.43718 21.8107 1.99268 21.2295 1.74845 20.8875C1.50422 20.5456 1.26488 20.2428 1.21603 20.2183C1.06461 20.1353 0.878996 20.1646 0.756881 20.2916Z" fill="#475467"/>
<path d="M12.06 21.1416C11.7914 21.4102 11.8451 21.5274 12.4996 22.0648C13.5596 22.944 13.9845 23.2468 14.1555 23.2468C14.346 23.2468 14.556 23.0612 14.556 22.8951C14.556 22.7144 14.4388 22.5874 13.9162 22.1918C13.6475 21.9866 13.2323 21.6642 12.9979 21.4688C12.3629 20.9364 12.2945 20.912 12.06 21.1416Z" fill="#475467"/>
<path d="M7.12716 22.9976C6.86828 23.2565 6.91712 23.3542 7.69377 24.0771C8.73419 25.0443 8.84165 25.1127 9.10542 24.9026C9.20311 24.8245 9.23242 24.761 9.23242 24.6144C9.23242 24.4386 9.19823 24.3995 8.37762 23.6424C7.43489 22.7778 7.38116 22.7485 7.12716 22.9976Z" fill="#475467"/>
</svg>
