<svg xmlns="http://www.w3.org/2000/svg" width="26.633" height="30.415" viewBox="0 0 26.633 30.415">
  <g id="fingerprint" transform="translate(-31.95 512.011)">
    <path id="Path_264" data-name="Path 264" d="M69.409-511.712a16.909,16.909,0,0,0-8.743,3.329c-.958.718-1.46,1.221-1.513,1.5a.954.954,0,0,0,.683,1.092c.362.1.619.006,1.092-.4a15.1,15.1,0,0,1,7.721-3.551,18.325,18.325,0,0,1,4,.006,14.956,14.956,0,0,1,7.469,3.358c.718.6.952.707,1.332.6a.975.975,0,0,0,.666-1.1c-.053-.286-.572-.8-1.577-1.548A16.646,16.646,0,0,0,73-511.572,25.331,25.331,0,0,0,69.409-511.712Z" transform="translate(-25.37 0)" fill="#475467" stroke="#475467" stroke-width="0.5"/>
    <path id="Path_265" data-name="Path 265" d="M43.438-448.771a15.731,15.731,0,0,0-10.629,6.231c-.537.712-.642.934-.607,1.261a.934.934,0,0,0,1.367.718,5.153,5.153,0,0,0,.695-.806,18.354,18.354,0,0,1,2.447-2.57,13.982,13.982,0,0,1,6.331-2.891,10.144,10.144,0,0,1,2.225-.134,10.206,10.206,0,0,1,2.231.134,13.785,13.785,0,0,1,6.4,2.961,17.174,17.174,0,0,1,2.371,2.5,5.152,5.152,0,0,0,.695.806.934.934,0,0,0,1.367-.718c.035-.321-.058-.526-.607-1.256a15.593,15.593,0,0,0-10.7-6.237A20.357,20.357,0,0,0,43.438-448.771Z" transform="translate(0 -59.209)" fill="#475467" stroke="#475467" stroke-width="0.5"/>
    <path id="Path_266" data-name="Path 266" d="M59.472-386.64a11.774,11.774,0,0,0-4.5,1.232,12.229,12.229,0,0,0-5.425,5.39,12.832,12.832,0,0,0-.73,10.074,13.937,13.937,0,0,0,2.079,3.749.9.9,0,0,0,1.349.07.957.957,0,0,0,.28-.823,2.457,2.457,0,0,0-.374-.666,10.46,10.46,0,0,1-1.594-3.054,10.746,10.746,0,0,1,.006-6.967,10.059,10.059,0,0,1,2.564-4.135,9.19,9.19,0,0,1,2.663-1.951,8.828,8.828,0,0,1,2.278-.823A10,10,0,0,1,69.283-379a11.117,11.117,0,0,1,.964,2.634,9.758,9.758,0,0,1,.2,3.487,2.583,2.583,0,0,1-2.511,2.032,2.324,2.324,0,0,1-1.8-.748,2.716,2.716,0,0,1-.8-2.149,5.44,5.44,0,0,0-1.478-4.041,5.112,5.112,0,0,0-2.575-1.46,5.624,5.624,0,0,0-2.167.041,4.984,4.984,0,0,0-3.335,2.885,4.916,4.916,0,0,0-.52,2.546,5.071,5.071,0,0,0,.164,1.659,11.692,11.692,0,0,0,3.288,5.42,11.239,11.239,0,0,0,1.962,1.606,5.514,5.514,0,0,0,2.5,1.01,1.123,1.123,0,0,0,.823-.444,1.047,1.047,0,0,0,.018-.958,1.116,1.116,0,0,0-.847-.473,6.828,6.828,0,0,1-3.124-2.067,10.807,10.807,0,0,1-2.12-2.774A5.779,5.779,0,0,1,57.124-374a3.642,3.642,0,0,1,.993-2.488,2.7,2.7,0,0,1,2.149-.969,2.85,2.85,0,0,1,2.184.917c.759.759.952,1.3,1.022,2.832a4.529,4.529,0,0,0,.5,2.278,4.579,4.579,0,0,0,2.873,2.342,5.449,5.449,0,0,0,2.085.029A4.631,4.631,0,0,0,72-371.631a4.215,4.215,0,0,0,.38-2.225,12.257,12.257,0,0,0-.625-4.059,12.375,12.375,0,0,0-9.718-8.608A16.431,16.431,0,0,0,59.472-386.64Z" transform="translate(-14.994 -117.772)" fill="#475467" stroke="#475467" stroke-width="0.5"/>
    <path id="Path_267" data-name="Path 267" d="M117-323.6a8.47,8.47,0,0,0-5.028,2.5,8.77,8.77,0,0,0-2.453,4.59,11.8,11.8,0,0,0-.006,3.27,18.151,18.151,0,0,0,4.374,7.75c.707.794,1.028.929,1.565.642a.852.852,0,0,0,.467-.8c0-.35-.088-.5-.642-1.1a20.244,20.244,0,0,1-3.241-4.783,7.767,7.767,0,0,1-.788-3.27,6.832,6.832,0,0,1,.777-3.247,6.63,6.63,0,0,1,6.255-3.7,6.641,6.641,0,0,1,5.624,3.7,6.671,6.671,0,0,1,.771,2.832,2.113,2.113,0,0,0,.164.882.942.942,0,0,0,1.6.035c.111-.181.117-.251.088-1.01a8.477,8.477,0,0,0-2.6-5.811,8.086,8.086,0,0,0-4.152-2.319,6.574,6.574,0,0,0-1.606-.164C117.622-323.614,117.1-323.608,117-323.6Z" transform="translate(-72.695 -177.136)" fill="#475467" stroke="#475467" stroke-width="0.5"/>
    <path id="Path_268" data-name="Path 268" d="M239.561-198.8a1.109,1.109,0,0,0-.531.6,7.989,7.989,0,0,0,.175,2.12,9.569,9.569,0,0,0,1.431,3.276,7.983,7.983,0,0,0,5.274,3.673c.6.082.894.018,1.15-.239a.9.9,0,0,0,.082-1.221c-.21-.251-.391-.327-.894-.374a5.621,5.621,0,0,1-3.708-2.342,7.742,7.742,0,0,1-1.653-4.24c-.058-.806-.146-1.01-.537-1.209A.863.863,0,0,0,239.561-198.8Z" transform="translate(-194.733 -294.588)" fill="#475467" stroke="#475467" stroke-width="0.5"/>
  </g>
</svg>
