<svg xmlns="http://www.w3.org/2000/svg" width="28.874" height="30.774" viewBox="0 0 28.874 30.774">
  <g id="gender" transform="translate(-16.118 512.25)">
    <path id="Path_269" data-name="Path 269" d="M39.3-511.083v.917l1.041.012,1.041.018-2,1.892c-1.094,1.041-2.016,1.9-2.04,1.91a2.282,2.282,0,0,1-.509-.372,7.851,7.851,0,0,0-3.69-1.809,8.67,8.67,0,0,0-3.051,0,7.944,7.944,0,0,0-5.162,3.536l-.266.414-.769.035a7.721,7.721,0,0,0-4.736,1.874,8,8,0,0,0-2.744,6.764,7.938,7.938,0,0,0,4.8,6.575,8,8,0,0,0,1.851.526l.325.041v2.472H20.616v1.892H23.4v2.661h1.833v-2.661h2.9v-1.892h-2.9l.012-1.224.018-1.224.5-.095a7.9,7.9,0,0,0,5.257-3.565l.254-.4h.4a8.018,8.018,0,0,0,7.066-4.423,7.959,7.959,0,0,0-.03-7.119c-.13-.254-.231-.467-.231-.479s.976-.952,2.176-2.087l2.17-2.064.03,1.123.03,1.123h1.833l.018-2.649L44.741-512H39.3Zm-6.238,4.435a6.155,6.155,0,0,1,4.281,3.855,5.458,5.458,0,0,1,.343,2.324,4.9,4.9,0,0,1-.183,1.33,7.457,7.457,0,0,1-.869,1.874,7.111,7.111,0,0,1-1.792,1.7,6.219,6.219,0,0,1-2.619.893c-.2,0-.207-.006-.166-.16a6.61,6.61,0,0,0,.177-1.792,7.036,7.036,0,0,0-.426-2.625,8.015,8.015,0,0,0-4.612-4.766l-.556-.219.16-.2a6.261,6.261,0,0,1,3.571-2.247A8.2,8.2,0,0,1,33.063-506.649ZM23.9-502.628a8.767,8.767,0,0,0-.2,2.247,7.758,7.758,0,0,0,1.9,4.831A8.478,8.478,0,0,0,29-493.227l.307.1-.284.361a6.149,6.149,0,0,1-4.447,2.211,6.087,6.087,0,0,1-6.191-4.653,5.2,5.2,0,0,1-.1-1.449,4.055,4.055,0,0,1,.166-1.6,5.991,5.991,0,0,1,1.721-2.8,7.252,7.252,0,0,1,1.041-.81,7.009,7.009,0,0,1,2.649-.851C23.91-502.717,23.927-502.681,23.9-502.628Zm2.7.361a7.132,7.132,0,0,1,1.738,1.07,6.739,6.739,0,0,1,1.857,2.974,6.412,6.412,0,0,1,.177,2.135c-.071.71-.177,1.183-.278,1.218a1.244,1.244,0,0,1-.449-.1,6.156,6.156,0,0,1-4.009-4.642,7.376,7.376,0,0,1,.03-2.365c.059-.26.118-.491.13-.514C25.825-502.539,26.062-502.474,26.6-502.267Z" fill="#475467" stroke="#475467" stroke-width="0.5"/>
  </g>
</svg>
