<svg width="46" height="34" viewBox="0 0 46 34" fill="none" xmlns="http://www.w3.org/2000/svg">
<path opacity="0.587821" fill-rule="evenodd" clip-rule="evenodd" d="M9.4043 7.52222C9.4043 11.6766 12.7725 15.0444 16.9274 15.0444C21.0824 15.0444 24.4506 11.6766 24.4506 7.52222C24.4506 3.36781 21.0824 0 16.9274 0C12.7725 0 9.4043 3.36781 9.4043 7.52222ZM28.2103 15.0444C28.2103 18.1602 30.7365 20.6861 33.8527 20.6861C36.9689 20.6861 39.4951 18.1602 39.4951 15.0444C39.4951 11.9286 36.9689 9.40276 33.8527 9.40276C30.7365 9.40276 28.2103 11.9286 28.2103 15.0444Z" fill="#172667"/>
<path fill-rule="evenodd" clip-rule="evenodd" d="M16.895 18.8057C8.01539 18.8057 0.730199 23.3689 0.00122562 32.3442C-0.0384825 32.8331 0.896554 33.8501 1.36822 33.8501H32.4359C33.8487 33.8501 33.8707 32.7133 33.8487 32.3457C33.2976 23.1181 25.8996 18.8057 16.895 18.8057ZM44.1139 33.85H36.8617C36.8617 29.617 35.463 25.7107 33.1025 22.5678C39.5094 22.6379 44.7406 25.8768 45.1343 32.7217C45.1502 32.9974 45.1343 33.85 44.1139 33.85Z" fill="#172667"/>
</svg>
