<svg xmlns="http://www.w3.org/2000/svg" width="19.814" height="19.75" viewBox="0 0 19.814 19.75">
  <path id="Icon_ionic-md-settings" data-name="Icon ionic-md-settings" d="M19.65,13.55a5.785,5.785,0,0,0,.047-.925c0-.324-.047-.6-.047-.925l1.986-1.526a.425.425,0,0,0,.095-.6L19.839,6.381a.461.461,0,0,0-.568-.185l-2.365.925A6.885,6.885,0,0,0,15.3,6.2l-.331-2.451a.507.507,0,0,0-.473-.37H10.709a.507.507,0,0,0-.473.37L9.858,6.2a8.011,8.011,0,0,0-1.609.925L5.884,6.2a.443.443,0,0,0-.568.185L3.424,9.573a.559.559,0,0,0,.095.6L5.553,11.7c0,.324-.047.6-.047.925s.047.6.047.925L3.566,15.076a.425.425,0,0,0-.095.6l1.892,3.191a.461.461,0,0,0,.568.185L8.3,18.129a6.884,6.884,0,0,0,1.608.925l.378,2.451a.459.459,0,0,0,.473.37h3.784a.507.507,0,0,0,.473-.37l.379-2.451A8.006,8.006,0,0,0,17,18.129l2.365.925a.443.443,0,0,0,.568-.185l1.892-3.191a.558.558,0,0,0-.095-.6ZM12.6,15.862a3.238,3.238,0,1,1,3.311-3.237A3.255,3.255,0,0,1,12.6,15.862Z" transform="translate(-2.718 -2.75)" fill="none" stroke="#475467" stroke-width="1.25"/>
</svg>
