<svg width="318" height="131" viewBox="0 0 318 131" fill="none" xmlns="http://www.w3.org/2000/svg">
<g clip-path="url(#clip0_1_1014)">
<path d="M68.6026 62.3744L68.54 23.8507C68.5381 23.244 68.0491 22.751 67.4447 22.751H58.1363C57.532 22.751 57.041 23.244 57.041 23.8526V72.9866C57.041 73.5952 57.532 74.0883 58.1363 74.0883H92.5942C93.1986 74.0883 93.6896 73.5952 93.6896 72.9866V64.6085C93.6896 64.0018 93.2006 63.5088 92.5962 63.5069L69.696 63.4722C69.0935 63.4722 68.6046 62.9811 68.6026 62.3744Z" fill="#172667"/>
<path d="M102.225 23.8507V72.9846C102.225 73.5932 102.716 74.0863 103.32 74.0863H113.201C113.806 74.0863 114.297 73.5932 114.297 72.9846V23.8507C114.297 23.2421 113.806 22.749 113.201 22.749H103.32C102.714 22.7509 102.225 23.244 102.225 23.8507Z" fill="#172667"/>
<path d="M248.547 23.8507V72.9846C248.547 73.5932 249.038 74.0863 249.642 74.0863H259.524C260.128 74.0863 260.619 73.5932 260.619 72.9846V23.8507C260.619 23.2421 260.128 22.749 259.524 22.749H249.642C249.038 22.7509 248.547 23.244 248.547 23.8507Z" fill="#172667"/>
<path d="M225.872 48.4976C225.872 49.4567 224.735 49.9575 224.033 49.3065L196.149 23.3827C195.707 22.9744 195.128 22.749 194.528 22.749H193.955C193.35 22.749 192.859 23.2421 192.859 23.8507V72.9846C192.859 73.5932 193.35 74.0863 193.955 74.0863H203.261C203.865 74.0863 204.356 73.5932 204.356 72.9846V48.7692C204.356 47.8139 205.485 47.3112 206.189 47.9525L234.079 73.4526C234.521 73.861 235.1 74.0863 235.7 74.0863H236.274C236.878 74.0863 237.369 73.5932 237.369 72.9846V23.8507C237.369 23.2421 236.878 22.749 236.274 22.749H226.967C226.363 22.749 225.872 23.2421 225.872 23.8507V48.4976Z" fill="#172667"/>
<path d="M188.573 13.8435H182.979V8.3332C182.979 8.1483 182.827 8 182.639 8H176.656C176.468 8 176.317 8.15023 176.317 8.3332V13.8415H170.721C170.533 13.8415 170.383 13.9918 170.383 14.1747V20.0663C170.383 20.2493 170.535 20.3995 170.721 20.3995H176.315V25.9117C176.315 26.0966 176.466 26.2449 176.654 26.2449H182.639C182.825 26.2449 182.979 26.0947 182.979 25.9117V20.4034H188.573C188.761 20.4034 188.911 20.2532 188.911 20.0702V14.1767C188.913 13.9937 188.759 13.8435 188.573 13.8435Z" fill="#172667"/>
<path d="M170.893 70.6485C170.713 70.6485 170.533 70.6274 170.355 70.5831C165.297 69.3466 159.601 68.6917 153.886 68.6917C148.194 68.6917 142.518 69.3408 137.477 70.5676C137.303 70.6119 137.123 70.6331 136.945 70.6331C136.401 70.6331 135.885 70.4328 135.488 70.0707C129.972 65.0478 126.649 57.9909 126.364 50.7068C126.068 43.1107 128.795 35.9094 134.041 30.43C139.288 24.9467 146.338 21.9268 153.886 21.9268C169.058 21.946 181.414 34.361 181.431 49.6052C181.431 57.3669 178.122 64.8301 172.352 70.0861C171.955 70.4482 171.436 70.6485 170.893 70.6485ZM153.657 34.307C145.639 34.4264 138.772 41.3292 138.655 49.3856C138.596 53.5111 140.155 57.4016 143.042 60.3445C145.931 63.2893 149.78 64.911 153.884 64.911C162.275 64.9052 169.107 58.0391 169.115 49.6071C169.115 41.1693 162.282 34.3051 153.884 34.3051L153.657 34.307Z" fill="#172667"/>
<path d="M47.4329 62.5921L38.8072 58.093C38.4297 57.8966 37.9779 57.991 37.6903 58.3068C36.3525 59.7821 34.8131 60.9994 33.1056 61.92C31.0832 63.012 28.9805 63.5648 26.8603 63.5648C24.2315 63.5648 21.7553 62.856 19.4981 61.4577C17.2351 60.0537 15.4082 58.1181 14.0664 55.7048C12.756 53.3493 12.087 50.834 12.0557 48.2262C12.087 45.6184 12.756 43.1031 14.0664 40.7476C15.4082 38.3343 17.237 36.3987 19.4981 34.9946C21.7533 33.5964 24.2315 32.8876 26.8603 32.8876C28.9805 32.8876 31.0812 33.4404 33.1056 34.5324C34.8131 35.453 36.3525 36.6722 37.6903 38.1456C37.9759 38.4614 38.4297 38.5558 38.8072 38.3593L47.4329 33.8602C47.9551 33.5887 48.1194 32.8934 47.7595 32.4273C45.4496 29.4285 42.6115 26.9825 39.2864 25.1528C35.396 23.013 31.2162 21.9287 26.8603 21.9287C22.1054 21.9287 17.6654 23.1325 13.6674 25.5033C8.891 28.3057 5.22752 32.356 2.82953 37.508C1.60315 40.1409 0.84229 42.9933 0.589973 45.888C0.56259 46.2097 0.556722 46.5255 0.541075 46.8433H0.517604C0.50978 47.0398 0.513692 47.2401 0.50978 47.4385C0.501956 47.7023 0.5 47.9643 0.5 48.2262C0.5 48.4881 0.501956 48.7481 0.50978 49.012C0.513692 49.2104 0.50978 49.4107 0.517604 49.6071H0.541075C0.556722 49.9249 0.56259 50.2408 0.589973 50.5624C0.84229 53.4572 1.60511 56.3096 2.82953 58.9424C5.22752 64.0944 8.88905 68.1467 13.6674 70.9471C17.6654 73.3199 22.1054 74.5217 26.8603 74.5217C31.2162 74.5217 35.396 73.4374 39.2864 71.2976C42.6115 69.4679 45.4496 67.0219 47.7595 64.0232C48.1194 63.5571 47.9551 62.8637 47.4329 62.5921Z" fill="#172667"/>
<path d="M316.79 62.5921L308.165 58.093C307.787 57.8966 307.335 57.991 307.048 58.3068C305.71 59.7821 304.171 60.9994 302.463 61.92C300.441 63.012 298.338 63.5648 296.218 63.5648C293.589 63.5648 291.113 62.856 288.856 61.4577C286.592 60.0537 284.766 58.1181 283.424 55.7048C282.113 53.3493 281.444 50.834 281.413 48.2262C281.444 45.6184 282.113 43.1031 283.424 40.7476C284.766 38.3343 286.594 36.3987 288.856 34.9946C291.111 33.5964 293.589 32.8876 296.218 32.8876C298.338 32.8876 300.439 33.4404 302.463 34.5324C304.171 35.453 305.71 36.6722 307.048 38.1456C307.333 38.4614 307.787 38.5558 308.165 38.3593L316.79 33.8602C317.313 33.5887 317.477 32.8934 317.117 32.4273C314.807 29.4285 311.969 26.9825 308.644 25.1528C304.753 23.013 300.574 21.9287 296.218 21.9287C291.463 21.9287 287.023 23.1325 283.025 25.5033C278.248 28.3057 274.585 32.356 272.187 37.508C270.961 40.1409 270.2 42.9933 269.947 45.888C269.92 46.2097 269.914 46.5255 269.898 46.8433H269.875C269.867 47.0398 269.871 47.2401 269.867 47.4385C269.859 47.7004 269.857 47.9623 269.857 48.2243C269.857 48.4862 269.859 48.7462 269.867 49.0101C269.871 49.2084 269.867 49.4087 269.875 49.6052H269.898C269.914 49.923 269.92 50.2388 269.947 50.5605C270.2 53.4552 270.963 56.3076 272.187 58.9405C274.585 64.0925 278.246 68.1448 283.025 70.9452C287.023 73.318 291.463 74.5198 296.218 74.5198C300.574 74.5198 304.753 73.4355 308.644 71.2957C311.969 69.466 314.807 67.02 317.117 64.0212C317.475 63.5571 317.311 62.8637 316.79 62.5921Z" fill="#172667"/>
<path d="M317.5 75.1221H0.5V100.042H317.5V75.1221Z" fill="#C9DEF2"/>
<path d="M154.594 99.4424C171.725 99.4424 185.613 92.4285 185.613 83.7764C185.613 75.1243 171.725 68.1104 154.594 68.1104C137.462 68.1104 123.574 75.1243 123.574 83.7764C123.574 92.4285 137.462 99.4424 154.594 99.4424Z" fill="#C9DEF2"/>
<path d="M150.369 59.1698C152.922 60.0249 155.777 59.971 158.295 59.0215" stroke="#282D69" stroke-width="0.75" stroke-miterlimit="10" stroke-linecap="round" stroke-linejoin="round"/>
<path d="M157.764 50.8341C158.09 51.8414 159.139 52.5733 160.213 52.5444C161.286 52.5155 162.294 51.7297 162.566 50.7051" stroke="#282D69" stroke-width="0.75" stroke-miterlimit="10" stroke-linecap="round" stroke-linejoin="round"/>
<path d="M145.57 51.2461C146.003 52.2091 147.033 52.8813 148.103 52.8947C149.173 52.9082 150.222 52.2611 150.677 51.3097" stroke="#282D69" stroke-width="0.75" stroke-miterlimit="10" stroke-linecap="round" stroke-linejoin="round"/>
<path d="M123.594 74.0888C122.648 73.3723 121.079 73.1739 120.396 74.1389C119.882 74.8669 120.128 75.8549 120.394 76.7023C120.887 76.4751 121.314 76.1111 121.613 75.6623C120.512 76.3191 119.575 77.2378 118.902 78.3183C119.442 76.3826 118.847 74.1812 117.404 72.7656C115.9 73.7171 115.057 75.5911 115.356 77.3264C115.929 76.712 116.377 75.9859 116.664 75.2001C116.365 76.4655 115.941 77.7019 115.399 78.8864C115.456 77.2358 115.096 75.5737 114.364 74.0888C113.519 74.5318 112.774 75.1616 112.201 75.9185C113.085 75.7933 113.903 75.2713 114.376 74.526C113.451 75.1558 112.528 75.7856 111.602 76.4154C110.845 76.9315 110.014 77.569 109.946 78.4743C111.743 78.143 113.31 76.7967 113.885 75.0864C112.651 75.6296 111.493 76.3383 110.452 77.1896C110.808 75.8722 111.164 74.5549 111.52 73.2356C109.993 74.9343 108.465 76.6349 106.938 78.3337C107.204 77.0105 107.468 75.6893 107.734 74.3661C107.841 73.8288 108.007 73.2163 108.51 72.9871C108.659 73.1335 108.805 73.2799 108.954 73.4262" fill="white"/>
<path d="M124.5 72.5631C123.254 71.6425 121.316 71.396 119.949 72.1933C119.037 72.7249 118.491 73.6359 118.353 74.6528C118.237 75.506 118.411 76.3554 118.666 77.1701C118.832 77.7036 119.184 78.0984 119.704 78.3141C120.258 78.5433 120.768 78.4778 121.3 78.2255C122.075 77.8577 122.687 77.2471 123.162 76.5518C123.589 75.9297 123.438 74.9128 122.883 74.4101C122.302 73.8863 121.406 73.7129 120.708 74.1347C119.342 74.959 118.198 76.0838 117.353 77.4243C118.446 77.8788 119.54 78.3314 120.633 78.786C121.326 76.2263 120.565 73.3971 118.673 71.5134C118.137 70.9799 117.158 70.8143 116.498 71.238C115.491 71.8871 114.627 72.7961 114.139 73.8901C113.864 74.5103 113.67 75.0919 113.578 75.7602C113.482 76.4632 113.51 77.0892 113.625 77.7941C113.721 78.3834 114.327 78.8784 114.879 79.0287C115.473 79.1904 116.199 79.0344 116.624 78.5741C117.42 77.7132 117.987 76.7579 118.394 75.6697C117.24 75.3558 116.088 75.0438 114.934 74.7298C114.666 75.8488 114.304 76.9409 113.852 78.0002C113.913 77.8596 113.973 77.719 114.032 77.5784C113.971 77.7171 113.911 77.8557 113.848 77.9944C114.963 78.291 116.078 78.5895 117.191 78.8861C117.249 76.9081 116.778 74.9744 115.912 73.1968C115.734 72.8327 115.233 72.4726 114.84 72.384C114.361 72.2761 113.895 72.3281 113.457 72.5612C112.322 73.164 111.421 74.0211 110.65 75.0245C110.589 75.1651 110.529 75.3057 110.47 75.4463C110.449 75.6023 110.427 75.7602 110.406 75.9163C110.406 76.3092 110.55 76.6789 110.791 76.9871C110.986 77.2375 111.213 77.4089 111.509 77.5302C111.908 77.6959 112.248 77.6843 112.676 77.6188C114.022 77.4127 115.2 76.521 115.923 75.4136C116.336 74.7818 116.207 73.7842 115.644 73.2719C115.415 73.0639 115.149 72.9117 114.851 72.8173C114.452 72.6902 113.819 72.7557 113.469 72.9945C112.467 73.6783 111.45 74.3446 110.46 75.0476C109.989 75.3828 109.5 75.7314 109.13 76.1763C108.901 76.4498 108.675 76.729 108.526 77.0526C108.299 77.5495 108.203 77.9193 108.15 78.4682C108.098 79.0075 108.446 79.5429 108.856 79.8549C109.33 80.2151 109.84 80.2825 110.421 80.1708C112.854 79.7047 114.83 77.8249 115.612 75.5503C115.708 75.2749 115.691 74.8878 115.612 74.6104C115.509 74.2387 115.276 73.9248 114.969 73.6937C114.711 73.4972 114.443 73.3894 114.12 73.3451C113.694 73.2892 113.369 73.3797 112.976 73.555C111.595 74.1675 110.347 74.986 109.181 75.9336C110.181 76.5056 111.18 77.0796 112.18 77.6516C112.536 76.3342 112.892 75.0168 113.248 73.6975C113.445 72.9676 113.124 72.0681 112.422 71.7022C111.745 71.3497 110.787 71.3786 110.247 71.9776C108.72 73.6763 107.192 75.377 105.664 77.0757C106.664 77.6477 107.663 78.2217 108.663 78.7937C108.831 77.9597 108.997 77.1258 109.166 76.2899C109.31 75.5715 109.387 74.7973 109.658 74.1116C109.598 74.2522 109.537 74.3928 109.478 74.5334C109.539 74.3909 109.611 74.2618 109.705 74.1405C109.611 74.2599 109.518 74.3793 109.426 74.4987C109.482 74.4332 109.541 74.3774 109.608 74.3235C109.486 74.4159 109.365 74.5084 109.244 74.5989C109.299 74.5604 109.351 74.5295 109.412 74.5006C108.686 74.4082 107.963 74.3158 107.237 74.2252C107.386 74.3716 107.532 74.518 107.681 74.6644C108.344 75.3192 109.565 75.3673 110.218 74.6644C110.877 73.9575 110.926 72.8655 110.218 72.1664C110.069 72.02 109.922 71.8736 109.774 71.7272C109.185 71.1456 108.315 71.0936 107.599 71.4518C106.394 72.0527 106.101 73.3662 105.864 74.5488C105.643 75.6505 105.422 76.7521 105.201 77.8538C105.05 78.6011 105.293 79.4678 106.026 79.8491C106.703 80.2016 107.661 80.1727 108.201 79.5737C109.729 77.875 111.256 76.1743 112.784 74.4756C111.785 73.9036 110.785 73.3297 109.786 72.7576C109.43 74.075 109.074 75.3924 108.718 76.7117C108.52 77.4416 108.841 78.3411 109.543 78.707C109.825 78.8534 110.13 78.9343 110.449 78.9478C110.94 78.9689 111.358 78.7224 111.718 78.4297C111.851 78.3218 111.986 78.2159 112.123 78.1119C112.002 78.2043 111.88 78.2968 111.759 78.3873C112.696 77.6785 113.709 77.0815 114.787 76.6038C113.909 75.9394 113.03 75.273 112.152 74.6085C112.113 74.7202 112.072 74.8281 112.027 74.9359C112.088 74.7953 112.148 74.6547 112.207 74.5141C112.031 74.9244 111.802 75.3057 111.528 75.6582C111.622 75.5388 111.716 75.4193 111.808 75.2999C111.528 75.6505 111.209 75.9625 110.853 76.2379C110.975 76.1454 111.096 76.053 111.217 75.9625C110.857 76.2321 110.47 76.4575 110.055 76.6346C110.198 76.5749 110.341 76.5152 110.484 76.4575C110.153 76.5923 109.815 76.6944 109.465 76.7618C110.222 77.3299 110.979 77.8981 111.736 78.4663C111.738 78.4432 111.74 78.42 111.741 78.3969C111.72 78.5529 111.698 78.7109 111.677 78.8669C111.7 78.7089 111.74 78.5606 111.802 78.4123C111.741 78.5529 111.681 78.6935 111.622 78.8341C111.698 78.6685 111.792 78.5163 111.902 78.37C111.808 78.4894 111.714 78.6088 111.622 78.7282C111.847 78.447 112.115 78.212 112.399 77.9925C112.277 78.0849 112.156 78.1774 112.035 78.2679C113.079 77.4821 114.196 76.7791 115.276 76.0434C114.458 75.2383 113.639 74.4313 112.821 73.6262C112.768 73.7091 112.712 73.788 112.651 73.867C112.745 73.7476 112.839 73.6282 112.931 73.5088C112.761 73.7206 112.567 73.9055 112.35 74.0712C112.471 73.9787 112.592 73.8863 112.714 73.7957C112.493 73.9556 112.258 74.0885 112.006 74.1925C112.148 74.1328 112.291 74.0731 112.434 74.0153C112.201 74.1058 111.966 74.1694 111.718 74.2079C112.393 75.0727 113.07 75.9374 113.744 76.8022C113.76 76.781 113.776 76.7598 113.793 76.7386C113.699 76.8581 113.606 76.9775 113.514 77.0969C113.858 76.6597 114.251 76.2706 114.691 75.9297C114.57 76.0222 114.449 76.1146 114.327 76.2052C114.625 75.9817 114.936 75.7814 115.264 75.6062C114.447 75.3943 113.627 75.1844 112.809 74.9725C112.886 75.1285 112.958 75.2884 113.029 75.4482C112.968 75.3076 112.907 75.167 112.849 75.0264C113.201 75.8585 113.443 76.7252 113.572 77.6169C113.551 77.4609 113.529 77.303 113.508 77.147C113.586 77.7228 113.617 78.3006 113.6 78.8804C113.578 79.6238 114.169 80.4154 114.916 80.5849C115.231 80.6561 115.554 80.6561 115.87 80.5849C116.254 80.4982 116.778 80.1361 116.942 79.7721C117.547 78.4432 118.049 77.0834 118.39 75.6639C118.499 75.2075 118.452 74.7125 118.21 74.3023C117.993 73.9363 117.564 73.5858 117.138 73.4895C116.678 73.3874 116.164 73.4086 115.755 73.6667C115.344 73.9286 115.1 74.2695 114.93 74.7221C114.893 74.8223 114.851 74.9224 114.81 75.0226C114.871 74.882 114.932 74.7414 114.99 74.6008C114.775 75.0977 114.501 75.5619 114.169 75.9933C114.263 75.8739 114.357 75.7545 114.449 75.6351C114.331 75.7834 114.208 75.9278 114.079 76.0684C115.078 76.3284 116.078 76.5884 117.077 76.8484C117.069 76.8022 117.062 76.756 117.056 76.7098C117.077 76.8658 117.099 77.0237 117.12 77.1797C117.069 76.7829 117.073 76.3862 117.126 75.9894C117.105 76.1454 117.083 76.3034 117.062 76.4594C117.122 76.0646 117.23 75.6813 117.382 75.3096C117.322 75.4502 117.261 75.5908 117.202 75.7314C117.371 75.3404 117.586 74.9783 117.848 74.6412C117.754 74.7607 117.66 74.8801 117.568 74.9995C117.805 74.7048 118.073 74.4409 118.374 74.2098C118.253 74.3023 118.132 74.3947 118.01 74.4852C118.106 74.414 118.202 74.3466 118.302 74.283C117.576 74.1906 116.852 74.0981 116.127 74.0076C116.301 74.1809 116.465 74.3658 116.616 74.5584C116.522 74.439 116.428 74.3196 116.336 74.2002C116.635 74.5931 116.882 75.0149 117.075 75.4675C117.015 75.3269 116.954 75.1863 116.895 75.0457C117.095 75.5233 117.232 76.0183 117.306 76.5287C117.285 76.3727 117.263 76.2148 117.242 76.0588C117.31 76.5692 117.314 77.0815 117.247 77.5938C117.269 77.4378 117.291 77.2799 117.312 77.1238C117.277 77.3665 117.23 77.6053 117.165 77.8422C116.935 78.6974 117.386 79.5872 118.204 79.9262C119.033 80.2709 119.968 79.957 120.443 79.2039C120.6 78.9574 120.766 78.7186 120.946 78.4875C120.852 78.6069 120.758 78.7263 120.666 78.8457C121.099 78.3045 121.592 77.8191 122.145 77.3973C122.024 77.4898 121.903 77.5822 121.781 77.6728C122.016 77.4975 122.259 77.3338 122.511 77.1816C121.693 76.3766 120.874 75.5696 120.056 74.7645C120.013 74.8281 119.968 74.8897 119.921 74.9513C120.015 74.8319 120.109 74.7125 120.201 74.5931C120.039 74.7934 119.855 74.9706 119.649 75.1304C119.771 75.038 119.892 74.9456 120.013 74.855C119.845 74.9764 119.669 75.0823 119.481 75.1709C120.359 75.5234 121.238 75.8739 122.116 76.2263C122 75.8527 121.895 75.4791 121.842 75.09C121.864 75.246 121.885 75.4039 121.907 75.5599C121.881 75.3327 121.873 75.1093 121.899 74.882C121.877 75.038 121.856 75.1959 121.834 75.3519C121.86 75.1805 121.901 75.0207 121.969 74.8608C121.909 75.0014 121.848 75.142 121.789 75.2826C121.842 75.1728 121.901 75.0707 121.973 74.9744C121.879 75.0939 121.785 75.2133 121.693 75.3327C121.77 75.2383 121.852 75.1555 121.946 75.0784C121.824 75.1709 121.703 75.2633 121.582 75.3539C121.691 75.271 121.807 75.2036 121.934 75.1478C121.791 75.2075 121.648 75.2672 121.506 75.325C121.654 75.2653 121.805 75.2248 121.965 75.1998C121.807 75.221 121.646 75.2422 121.488 75.2633C121.717 75.2345 121.944 75.2383 122.173 75.2672C122.014 75.246 121.854 75.2248 121.695 75.2036C121.953 75.2422 122.202 75.3115 122.442 75.4078C122.3 75.3481 122.157 75.2884 122.014 75.2306C122.253 75.3308 122.474 75.4559 122.681 75.6081C123.029 75.8643 123.665 75.8951 124.064 75.7853C124.481 75.6717 124.93 75.3558 125.136 74.9725C125.355 74.5623 125.466 74.0654 125.316 73.6108C125.255 73.4702 125.194 73.3296 125.136 73.1891C124.983 72.931 124.768 72.7191 124.5 72.5631Z" fill="white"/>
<path d="M125.013 74.1654C125.752 71.0087 122.095 70.8873 118.816 72.9597C119.112 72.64 118.979 72.0911 118.642 71.8157C118.304 71.5402 117.839 71.4805 117.4 71.4825C116.064 71.4902 114.738 71.9909 113.741 72.8653C113.766 71.704 112.055 71.4266 110.586 72.771C110.296 72.4859 109.946 72.2895 109.602 72.172C109.215 72.0391 108.765 72.0429 108.383 72.1912C107.589 72.5013 107.065 73.2486 106.697 74.0074C106.199 75.0417 105.905 76.1742 105.843 77.3182C105.804 78.0135 105.921 78.834 106.537 79.173C107.11 79.4869 107.83 79.225 108.387 78.8841C109.479 78.2177 110.382 77.2547 110.971 76.1318C110.678 76.5459 110.38 76.9715 110.249 77.4588C110.118 77.9461 110.185 78.5181 110.549 78.8725C111.11 79.4233 112.065 79.2269 112.765 78.8629C113.954 78.2465 114.701 77.168 115.523 76.0605C115.176 76.596 114.885 76.8425 114.701 77.3587C114.517 77.8748 114.461 78.5586 114.881 78.9149C115.399 79.3521 116.197 79.1922 116.81 78.8956C117.805 78.4122 118.558 77.5667 119.192 76.673C118.875 77.1661 118.568 77.559 118.629 78.052C118.689 78.5451 118.989 78.8513 119.474 78.9842C120.266 79.1999 122.327 78.3294 122.998 74.9993" stroke="#282D69" stroke-width="0.75" stroke-miterlimit="10" stroke-linecap="round" stroke-linejoin="round"/>
<path d="M183.055 74.0878C184.001 73.3713 185.57 73.173 186.253 74.1379C186.767 74.8659 186.521 75.8539 186.255 76.7014C185.762 76.4741 185.335 76.1101 185.036 75.6613C186.135 76.3181 187.074 77.2368 187.747 78.3173C187.207 76.3817 187.802 74.1803 189.245 72.7646C190.749 73.7161 191.592 75.5901 191.293 77.3254C190.72 76.711 190.272 75.9849 189.985 75.1991C190.284 76.4645 190.708 77.701 191.25 78.8854C191.193 77.2349 191.553 75.5727 192.285 74.0878C193.13 74.5308 193.875 75.1606 194.448 75.9175C193.564 75.7923 192.746 75.2704 192.273 74.525C193.198 75.1548 194.121 75.7846 195.047 76.4144C195.804 76.9306 196.635 77.5681 196.703 78.4733C194.906 78.142 193.339 76.7958 192.764 75.0855C193.998 75.6286 195.156 76.3374 196.197 77.1886C195.841 75.8713 195.485 74.5539 195.129 73.2346C196.656 74.9333 198.184 76.634 199.712 78.3327C199.446 77.0095 199.181 75.6883 198.915 74.3651C198.808 73.8278 198.642 73.2153 198.139 72.9861C197.99 73.1325 197.844 73.2789 197.695 73.4253" fill="white"/>
<path d="M183.96 75.6134C184.167 75.4612 184.389 75.336 184.627 75.2359C184.484 75.2956 184.342 75.3553 184.199 75.4131C184.441 75.3168 184.688 75.2474 184.946 75.2089C184.788 75.2301 184.627 75.2513 184.469 75.2725C184.698 75.2436 184.924 75.2397 185.153 75.2686C184.995 75.2474 184.834 75.2262 184.676 75.2051C184.834 75.2301 184.985 75.2705 185.136 75.3303C184.993 75.2705 184.85 75.2108 184.707 75.1531C184.834 75.2089 184.95 75.2763 185.059 75.3591C184.938 75.2667 184.817 75.1742 184.696 75.0837C184.789 75.1608 184.872 75.2436 184.948 75.338C184.854 75.2185 184.76 75.0991 184.668 74.9797C184.741 75.0779 184.801 75.1781 184.852 75.2879C184.791 75.1473 184.731 75.0067 184.672 74.8661C184.739 75.0259 184.782 75.1858 184.807 75.3572C184.786 75.2012 184.764 75.0433 184.743 74.8873C184.768 75.1145 184.76 75.338 184.735 75.5652C184.756 75.4092 184.778 75.2513 184.799 75.0953C184.746 75.4824 184.643 75.858 184.525 76.2316C185.404 75.8792 186.282 75.5286 187.16 75.1762C186.972 75.0876 186.796 74.9816 186.628 74.8603C186.749 74.9528 186.871 75.0452 186.992 75.1357C186.786 74.9778 186.603 74.8006 186.44 74.5984C186.534 74.7178 186.628 74.8372 186.72 74.9566C186.673 74.895 186.628 74.8333 186.585 74.7698C185.767 75.5749 184.948 76.3818 184.13 77.1869C184.383 77.3391 184.625 77.5028 184.86 77.678C184.739 77.5856 184.617 77.4931 184.496 77.4026C185.048 77.8244 185.543 78.3098 185.975 78.851C185.881 78.7316 185.787 78.6121 185.695 78.4927C185.875 78.7238 186.043 78.9607 186.198 79.2092C186.671 79.9603 187.608 80.2781 188.437 79.9314C189.255 79.5905 189.709 78.7065 189.476 77.8475C189.411 77.6106 189.362 77.3718 189.329 77.1291C189.351 77.2851 189.372 77.4431 189.394 77.5991C189.329 77.0887 189.333 76.5764 189.4 76.0641C189.378 76.2201 189.357 76.378 189.335 76.534C189.409 76.0236 189.546 75.5286 189.746 75.051C189.685 75.1916 189.625 75.3322 189.566 75.4728C189.771 74.999 190.031 74.556 190.35 74.1477C190.256 74.2671 190.162 74.3865 190.071 74.5059C190.209 74.3326 190.358 74.1689 190.515 74.0129C189.789 74.1053 189.065 74.1978 188.34 74.2883C188.439 74.3518 188.537 74.4193 188.631 74.4905C188.51 74.3981 188.388 74.3056 188.267 74.2151C188.568 74.4462 188.836 74.7101 189.073 75.0048C188.979 74.8853 188.885 74.7659 188.793 74.6465C189.055 74.9836 189.271 75.3476 189.439 75.7366C189.378 75.596 189.317 75.4554 189.259 75.3148C189.411 75.6846 189.519 76.0679 189.58 76.4647C189.558 76.3087 189.537 76.1507 189.515 75.9947C189.568 76.3915 189.572 76.7882 189.521 77.185C189.542 77.029 189.564 76.871 189.585 76.715C189.58 76.7613 189.572 76.8075 189.564 76.8537C190.563 76.5937 191.563 76.3337 192.562 76.0737C192.433 75.9331 192.31 75.7906 192.193 75.6403C192.287 75.7598 192.38 75.8792 192.472 75.9986C192.142 75.5671 191.868 75.103 191.651 74.6061C191.712 74.7467 191.772 74.8873 191.831 75.0279C191.79 74.9277 191.749 74.8276 191.712 74.7274C191.547 74.2883 191.311 73.9147 190.886 73.672C190.501 73.4505 189.936 73.3561 189.503 73.4948C188.551 73.7991 188.019 74.7043 188.25 75.6673C188.59 77.0848 189.093 78.4465 189.697 79.7754C189.791 79.8949 189.885 80.0143 189.977 80.1337C190.139 80.3051 190.331 80.4283 190.554 80.4996C190.91 80.6479 191.344 80.7095 191.721 80.5882C192.461 80.3532 193.061 79.683 193.038 78.8837C193.02 78.304 193.051 77.7262 193.13 77.1503C193.108 77.3063 193.087 77.4643 193.065 77.6203C193.194 76.7285 193.437 75.8618 193.789 75.0298C193.728 75.1704 193.668 75.311 193.609 75.4516C193.679 75.2917 193.752 75.1338 193.828 74.9759C193.01 75.1877 192.191 75.3977 191.373 75.6095C191.702 75.7848 192.013 75.9832 192.31 76.2085C192.189 76.1161 192.068 76.0236 191.946 75.9331C192.386 76.274 192.781 76.665 193.124 77.1002C193.03 76.9808 192.936 76.8614 192.844 76.742C192.86 76.7632 192.875 76.7844 192.893 76.8056C193.568 75.9408 194.245 75.076 194.919 74.2113C194.673 74.1727 194.436 74.1092 194.203 74.0187C194.346 74.0784 194.489 74.1381 194.632 74.1958C194.379 74.0899 194.145 73.9589 193.924 73.7991C194.045 73.8915 194.166 73.984 194.288 74.0745C194.07 73.9089 193.879 73.722 193.707 73.5121C193.801 73.6315 193.894 73.7509 193.986 73.8704C193.926 73.7914 193.871 73.7124 193.816 73.6296C192.999 74.4347 192.179 75.2417 191.361 76.0467C192.441 76.7824 193.558 77.4854 194.602 78.2712C194.481 78.1788 194.36 78.0863 194.239 77.9958C194.524 78.2154 194.792 78.4504 195.015 78.7316C194.921 78.6121 194.827 78.4927 194.735 78.3733C194.847 78.5197 194.941 78.6718 195.015 78.8375C194.955 78.6969 194.894 78.5563 194.835 78.4157C194.896 78.564 194.937 78.7123 194.96 78.8702C194.939 78.7142 194.917 78.5563 194.896 78.4003C194.898 78.4234 194.9 78.4465 194.902 78.4696C195.659 77.9015 196.416 77.3333 197.173 76.7651C196.822 76.6977 196.484 76.5956 196.154 76.4608C196.296 76.5205 196.439 76.5802 196.582 76.638C196.167 76.4608 195.78 76.2355 195.42 75.9658C195.541 76.0583 195.663 76.1507 195.784 76.2412C195.428 75.9658 195.109 75.6538 194.829 75.3033C194.923 75.4227 195.017 75.5421 195.109 75.6615C194.835 75.3071 194.606 74.9277 194.43 74.5175C194.491 74.6581 194.552 74.7987 194.61 74.9393C194.565 74.8314 194.524 74.7216 194.485 74.6119C193.607 75.2763 192.729 75.9427 191.85 76.6072C192.928 77.0848 193.941 77.6819 194.878 78.3907C194.757 78.2982 194.636 78.2058 194.514 78.1152C194.651 78.2192 194.784 78.3252 194.919 78.433C195.234 78.6892 195.535 78.8644 195.95 78.9184C196.333 78.9684 196.76 78.9203 197.094 78.7084C197.769 78.2809 198.129 77.4951 197.92 76.7131C197.564 75.3957 197.208 74.0784 196.852 72.7591C195.852 73.3311 194.853 73.905 193.853 74.477C195.381 76.1758 196.909 77.8764 198.436 79.5751C198.941 80.1356 199.975 80.255 200.611 79.8506C201.317 79.4018 201.597 78.6564 201.437 77.8552C201.216 76.7536 200.994 75.6519 200.773 74.5502C200.537 73.3677 200.243 72.0561 199.039 71.4532C198.323 71.0969 197.45 71.1509 196.864 71.7287C196.715 71.875 196.568 72.0214 196.42 72.1678C195.756 72.8226 195.704 74.0206 196.42 74.6658C197.135 75.3129 198.248 75.3649 198.956 74.6658C199.105 74.5194 199.252 74.373 199.4 74.2267C198.675 74.3191 197.951 74.4116 197.225 74.5021C197.284 74.531 197.339 74.5637 197.394 74.6003C197.272 74.5079 197.151 74.4154 197.03 74.3249C197.098 74.3788 197.157 74.4347 197.212 74.5001C197.118 74.3807 197.024 74.2613 196.932 74.1419C197.028 74.2633 197.098 74.3923 197.159 74.5348C197.098 74.3942 197.038 74.2536 196.979 74.113C197.251 74.7968 197.329 75.5729 197.472 76.2913C197.64 77.1253 197.806 77.9592 197.974 78.7951C198.974 78.2231 199.973 77.6491 200.973 77.0771C199.445 75.3784 197.918 73.6778 196.39 71.979C195.886 71.4186 194.851 71.2992 194.215 71.7036C193.54 72.1312 193.18 72.917 193.39 73.6989C193.746 75.0163 194.102 76.3337 194.458 77.653C195.457 77.081 196.457 76.507 197.456 75.935C196.29 74.9874 195.043 74.1689 193.662 73.5564C193.372 73.4274 193.081 73.3157 192.756 73.3157C192.357 73.3157 191.981 73.4582 191.669 73.6951C191.129 74.1053 190.796 74.8834 191.025 75.5517C191.809 77.8263 193.783 79.7061 196.216 80.1722C196.795 80.2839 197.308 80.2165 197.781 79.8563C198.192 79.5443 198.54 79.0089 198.487 78.4696C198.434 77.9284 198.34 77.5471 198.111 77.054C197.965 76.7382 197.752 76.4762 197.529 76.2047C197.153 75.7463 196.656 75.39 196.177 75.0491C195.189 74.3461 194.172 73.6797 193.169 72.996C192.846 72.7764 192.398 72.7379 192.025 72.786C191.649 72.8361 191.26 72.9882 190.994 73.2714C190.47 73.8338 190.272 74.737 190.714 75.4131C191.438 76.5205 192.615 77.4122 193.961 77.6183C194.28 77.6665 194.597 77.705 194.915 77.6183C195.293 77.5163 195.612 77.2871 195.846 76.9847C196.046 76.7304 196.155 76.4666 196.2 76.1488C196.249 75.7944 196.216 75.3206 195.987 75.0221C195.217 74.0187 194.315 73.1616 193.18 72.5588C192.38 72.1331 191.156 72.3084 190.726 73.1924C189.859 74.9701 189.388 76.9038 189.447 78.8818C190.561 78.5852 191.676 78.2866 192.789 77.99C192.727 77.8514 192.666 77.7146 192.605 77.574C192.666 77.7146 192.727 77.8552 192.785 77.9958C192.334 76.9365 191.972 75.8445 191.704 74.7255C190.55 75.0394 189.398 75.3514 188.244 75.6654C188.651 76.7555 189.22 77.7089 190.014 78.5698C190.438 79.0301 191.166 79.1861 191.759 79.0243C192.31 78.8741 192.916 78.3791 193.012 77.7897C193.112 77.1831 193.171 76.6014 193.091 75.9909C193.044 75.623 192.997 75.259 192.893 74.9027C192.793 74.5522 192.645 74.217 192.496 73.8858C192.007 72.7918 191.146 71.8827 190.137 71.2337C189.478 70.81 188.502 70.9737 187.962 71.5091C186.071 73.3927 185.308 76.222 186.002 78.7816C187.096 78.3271 188.189 77.8745 189.282 77.42C188.437 76.0795 187.293 74.9547 185.928 74.1304C185.277 73.7355 184.281 73.8415 183.753 74.4058C183.542 74.6311 183.387 74.8931 183.291 75.1858C183.16 75.5845 183.233 76.1969 183.471 76.5475C183.946 77.2408 184.559 77.8533 185.333 78.2212C185.865 78.4735 186.378 78.5409 186.929 78.3098C187.45 78.094 187.802 77.6992 187.968 77.1657C188.195 76.4377 188.39 75.648 188.314 74.8834C188.203 73.776 187.682 72.7706 186.685 72.189C185.318 71.3916 183.379 71.6362 182.133 72.5588C181.744 72.8457 181.443 73.1346 181.308 73.6142C181.191 74.0379 181.243 74.6003 181.488 74.9759C181.734 75.3534 182.102 75.6846 182.56 75.7886C183.017 75.8888 183.583 75.8926 183.96 75.6134Z" fill="white"/>
<path d="M181.635 74.1654C180.896 71.0087 184.554 70.8873 187.832 72.9597C187.536 72.64 187.669 72.0911 188.006 71.8157C188.344 71.5402 188.81 71.4805 189.248 71.4825C190.584 71.4902 191.91 71.9909 192.907 72.8653C192.882 71.704 194.593 71.4266 196.062 72.771C196.352 72.4859 196.702 72.2895 197.046 72.172C197.434 72.0391 197.883 72.0429 198.265 72.1912C199.059 72.5013 199.583 73.2486 199.951 74.0074C200.45 75.0417 200.743 76.1742 200.806 77.3182C200.845 78.0135 200.727 78.834 200.111 79.173C199.538 79.4869 198.818 79.225 198.261 78.8841C197.169 78.2177 196.266 77.2547 195.677 76.1318C195.97 76.5459 196.268 76.9715 196.399 77.4588C196.53 77.9461 196.463 78.5181 196.1 78.8725C195.538 79.4233 194.584 79.2269 193.883 78.8629C192.694 78.2465 191.947 77.168 191.126 76.0605C191.472 76.596 191.763 76.8425 191.947 77.3587C192.131 77.8748 192.188 78.5586 191.767 78.9149C191.249 79.3521 190.451 79.1922 189.839 78.8956C188.843 78.4122 188.09 77.5667 187.456 76.673C187.773 77.1661 188.08 77.559 188.02 78.052C187.959 78.5432 187.66 78.8513 187.175 78.9842C186.382 79.1999 184.321 78.3294 183.65 74.9993" stroke="#282D69" stroke-width="0.75" stroke-miterlimit="10" stroke-linecap="round" stroke-linejoin="round"/>
<path d="M71.5 123.63V112.255H73.6555V121.844H79.7281V123.632H71.5V123.63Z" fill="#89A6CA"/>
<path d="M83.0957 123.629V112.255H85.2512V123.629H83.0957Z" fill="#89A6CA"/>
<path d="M92.2005 123.629H90.0449V112.255H98.5223V114.043H92.2028V123.629H92.2005ZM92.0343 117.501H97.8077V119.256H92.0343V117.501Z" fill="#89A6CA"/>
<path d="M104.427 121.841H110.98V123.629H102.27V112.255H110.747V114.043H104.427V121.841ZM104.264 116.982H110.037V118.722H104.264V116.982Z" fill="#89A6CA"/>
<path d="M126.656 123.791C125.761 123.791 124.938 123.647 124.185 123.359C123.432 123.073 122.777 122.664 122.219 122.132C121.661 121.601 121.227 120.983 120.916 120.278C120.607 119.575 120.453 118.794 120.453 117.94C120.453 117.084 120.607 116.305 120.916 115.599C121.227 114.896 121.664 114.276 122.226 113.746C122.791 113.215 123.449 112.805 124.199 112.519C124.952 112.233 125.776 112.089 126.67 112.089C127.62 112.089 128.489 112.248 129.275 112.567C130.06 112.886 130.723 113.362 131.264 113.99L129.871 115.274C129.439 114.831 128.964 114.497 128.444 114.276C127.924 114.054 127.366 113.942 126.768 113.942C126.16 113.942 125.605 114.041 125.101 114.235C124.598 114.429 124.161 114.707 123.791 115.062C123.421 115.42 123.129 115.844 122.92 116.331C122.711 116.818 122.604 117.355 122.604 117.94C122.604 118.525 122.708 119.062 122.92 119.549C123.129 120.036 123.421 120.459 123.791 120.815C124.161 121.173 124.598 121.448 125.101 121.643C125.605 121.839 126.16 121.935 126.768 121.935C127.364 121.935 127.924 121.824 128.444 121.601C128.964 121.379 129.439 121.04 129.871 120.586L131.264 121.87C130.723 122.498 130.058 122.974 129.275 123.3C128.491 123.629 127.618 123.791 126.656 123.791Z" fill="#89A6CA"/>
<path d="M133.109 123.629L138.334 112.255H140.459L145.701 123.629H143.429L138.949 113.375H139.813L135.317 123.629H133.109ZM135.514 120.997L136.11 119.337H142.365L142.945 120.997H135.514Z" fill="#89A6CA"/>
<path d="M148.834 123.629V112.255H153.613C154.641 112.255 155.521 112.414 156.257 112.735C156.993 113.054 157.561 113.517 157.957 114.126C158.356 114.733 158.555 115.458 158.555 116.303C158.555 117.137 158.356 117.85 157.957 118.447C157.561 119.043 156.993 119.503 156.257 119.826C155.521 120.152 154.641 120.313 153.613 120.313H150.045L150.99 119.37V123.627H148.834V123.629ZM150.992 119.599L150.047 118.575H153.515C154.465 118.575 155.182 118.374 155.664 117.975C156.143 117.573 156.386 117.014 156.386 116.3C156.386 115.584 156.143 115.03 155.664 114.635C155.182 114.239 154.465 114.041 153.515 114.041H150.047L150.992 113.002V119.599ZM156.433 123.629L153.496 119.501H155.802L158.755 123.629H156.433Z" fill="#89A6CA"/>
<path d="M164.775 121.841H171.327V123.629H162.617V112.255H171.095V114.043H164.775V121.841ZM164.609 116.982H170.382V118.722H164.609V116.982Z" fill="#89A6CA"/>
<path d="M187.002 123.791C186.107 123.791 185.283 123.647 184.531 123.359C183.778 123.073 183.123 122.664 182.565 122.132C182.007 121.601 181.573 120.983 181.262 120.278C180.953 119.575 180.799 118.794 180.799 117.94C180.799 117.084 180.953 116.305 181.262 115.599C181.573 114.896 182.01 114.276 182.572 113.746C183.137 113.215 183.795 112.805 184.545 112.519C185.297 112.233 186.121 112.089 187.016 112.089C187.966 112.089 188.835 112.248 189.62 112.567C190.406 112.886 191.069 113.362 191.61 113.99L190.216 115.274C189.784 114.831 189.309 114.497 188.79 114.276C188.27 114.054 187.712 113.942 187.114 113.942C186.506 113.942 185.95 114.041 185.447 114.235C184.944 114.429 184.507 114.707 184.137 115.062C183.766 115.42 183.474 115.844 183.265 116.331C183.056 116.818 182.95 117.355 182.95 117.94C182.95 118.525 183.054 119.062 183.265 119.549C183.474 120.036 183.766 120.459 184.137 120.815C184.507 121.173 184.944 121.448 185.447 121.643C185.95 121.839 186.506 121.935 187.114 121.935C187.709 121.935 188.27 121.824 188.79 121.601C189.309 121.379 189.784 121.04 190.216 120.586L191.61 121.87C191.069 122.498 190.404 122.974 189.62 123.3C188.839 123.629 187.966 123.791 187.002 123.791Z" fill="#89A6CA"/>
<path d="M195.346 123.63V112.255H197.501V121.844H203.574V123.632H195.346V123.63Z" fill="#89A6CA"/>
<path d="M206.943 123.629V112.255H209.099V123.629H206.943Z" fill="#89A6CA"/>
<path d="M213.891 123.629V112.255H215.666L222.95 121.031H222.069V112.255H224.194V123.629H222.418L215.151 114.853H216.03V123.629H213.891Z" fill="#89A6CA"/>
<path d="M228.988 123.629V112.255H231.144V123.629H228.988Z" fill="#89A6CA"/>
<path d="M241.312 123.791C240.418 123.791 239.594 123.647 238.841 123.359C238.089 123.073 237.433 122.664 236.876 122.132C236.318 121.601 235.883 120.983 235.572 120.278C235.264 119.575 235.109 118.794 235.109 117.94C235.109 117.084 235.264 116.305 235.572 115.599C235.883 114.896 236.32 114.276 236.883 113.746C237.448 113.215 238.105 112.805 238.855 112.519C239.608 112.233 240.432 112.089 241.327 112.089C242.276 112.089 243.145 112.248 243.931 112.567C244.717 112.886 245.379 113.362 245.92 113.99L244.527 115.274C244.095 114.831 243.62 114.497 243.1 114.276C242.58 114.054 242.022 113.942 241.424 113.942C240.816 113.942 240.261 114.041 239.758 114.235C239.254 114.429 238.817 114.707 238.447 115.062C238.077 115.42 237.785 115.844 237.576 116.331C237.367 116.818 237.26 117.355 237.26 117.94C237.26 118.525 237.365 119.062 237.576 119.549C237.785 120.036 238.077 120.459 238.447 120.815C238.817 121.173 239.254 121.448 239.758 121.643C240.261 121.839 240.816 121.935 241.424 121.935C242.02 121.935 242.58 121.824 243.1 121.601C243.62 121.379 244.095 121.04 244.527 120.586L245.92 121.87C245.379 122.498 244.714 122.974 243.931 123.3C243.148 123.629 242.274 123.791 241.312 123.791Z" fill="#89A6CA"/>
</g>
<defs>
<clipPath id="clip0_1_1014">
<rect width="317" height="131" fill="white" transform="translate(0.5)"/>
</clipPath>
</defs>
</svg>
