<svg width="14" height="19" viewBox="0 0 14 19" fill="none" xmlns="http://www.w3.org/2000/svg">
<path d="M6.13968 0.0457885C5.88608 0.124529 5.65787 0.269055 5.47828 0.464649C5.33085 0.613873 5.22633 0.800058 5.17569 1.00363C5.07329 1.317 5.03479 1.33085 4.32104 1.33085H3.70508L3.71893 1.79283C3.692 2.02525 3.73097 2.26056 3.83135 2.47192C3.97137 2.74584 4.19418 2.96865 4.4681 3.10867L4.67907 3.21107H8.33866L8.55656 3.10867C8.84961 2.96295 9.08602 2.72411 9.22873 2.42957C9.31725 2.22344 9.35348 1.99862 9.33421 1.77511L9.34807 1.32854H8.73211C8.13077 1.32854 8.11615 1.32853 8.01451 1.24384C7.94541 1.17811 7.89448 1.09561 7.86668 1.00438C7.7881 0.72586 7.62369 0.479212 7.39686 0.299511C7.17002 0.11981 6.89229 0.0162162 6.60318 0.00344661C6.44741 -0.00726418 6.29093 0.00702693 6.13968 0.0457885Z" fill="#FAF9F7"/>
<path d="M0.992473 1.36929C0.798374 1.42376 0.618176 1.51917 0.463992 1.64905C0.309808 1.77893 0.185206 1.9403 0.0985529 2.12233L0 2.33328V17.0055L0.102406 17.2234C0.250176 17.515 0.488439 17.7508 0.781504 17.8956L0.985541 17.9903L6.40448 18.0011C10.4229 18.008 11.8712 18.0011 12.0167 17.9726C12.2713 17.9171 12.5039 17.7876 12.6854 17.6006C12.8668 17.4135 12.9891 17.1771 13.0369 16.9209C13.0861 16.6606 13.0861 2.67669 13.0369 2.41722C12.9974 2.2123 12.9107 2.01942 12.7836 1.85394C12.6565 1.68846 12.4925 1.55493 12.3046 1.46401L12.069 1.34774L11.0627 1.33696L10.0564 1.32617L10.0356 1.77661C10.0274 1.9929 10.0017 2.20817 9.95859 2.42029C9.86713 2.75277 9.69354 3.0569 9.45378 3.30473C9.21402 3.55256 8.9158 3.73612 8.58653 3.83853C8.344 3.91553 8.30165 3.91553 6.52844 3.91553C5.85493 3.96704 5.17784 3.94587 4.50886 3.8524C4.16373 3.75589 3.85198 3.56593 3.60801 3.30343C3.39676 3.09764 3.23359 2.84771 3.13017 2.57152C3.02675 2.29533 2.98563 1.9997 3.00975 1.70577V1.32927H2.07041C1.54838 1.33774 1.06639 1.35158 0.992473 1.36929ZM9.51125 8.35048C9.56987 8.38951 9.61267 8.44813 9.632 8.51585C9.65133 8.58357 9.64592 8.65597 9.61673 8.72007C9.58824 8.78012 8.77595 9.59934 7.73805 10.6165C5.81316 12.4951 5.79545 12.5098 5.59911 12.4074C5.44512 12.3265 3.43554 10.3416 3.4109 10.2469C3.39723 10.1883 3.39878 10.1273 3.41541 10.0695C3.43203 10.0118 3.46317 9.95923 3.50587 9.91692C3.54856 9.87461 3.60139 9.84394 3.6593 9.82784C3.71721 9.81174 3.77828 9.81075 3.83669 9.82495C4.18275 10.1065 4.51184 10.4084 4.82223 10.7289L5.72307 11.6159L6.15271 11.197C6.38831 10.966 7.14133 10.233 7.82428 9.5647C8.50723 8.89638 9.10163 8.33276 9.14398 8.30889C9.20161 8.27631 9.26803 8.26272 9.33383 8.27005C9.39962 8.27738 9.46143 8.30524 9.51048 8.34971L9.51125 8.35048Z" fill="#FAF9F7"/>
</svg>
