<svg width="48" height="44" viewBox="0 0 48 44" fill="none" xmlns="http://www.w3.org/2000/svg">
<path d="M6.58355 0.378625L6.33832 0.598104V8.78283V16.9584L4.69035 16.9858L3.04237 17.0224L2.29686 17.3608C1.40421 17.7723 0.854887 18.3027 0.423275 19.1532L0.109375 19.7659V30.5204V41.2657L0.472321 41.9607C0.913743 42.7929 1.48269 43.305 2.39496 43.7074L3.05218 44H20.4638H37.8754L38.5327 43.7074C39.7392 43.177 40.524 42.2167 40.779 40.973C40.8477 40.6804 42.3093 35.6598 44.0357 29.8253L47.1747 19.2172L47.0766 18.5588C46.8118 16.8212 45.4188 15.3763 43.5649 14.9191C43.1136 14.8093 42.3975 14.7819 40.3572 14.7819H37.7283V9.15777V3.52449L37.4831 3.30501C37.2574 3.08553 37.1986 3.07638 35.9136 3.07638H34.5893V1.84182C34.5893 0.643829 34.5795 0.588959 34.3441 0.378625L34.1086 0.150002H20.4638H6.81898L6.58355 0.378625ZM33.0198 11.1239V20.6347H25.3489H17.6779L15.7063 18.8057L13.7346 16.9767H10.8212H7.90782V9.29494V1.61319H20.4638H33.0198V11.1239ZM36.1588 12.5871V20.6347H35.374H34.5893V12.5871V4.53957H35.374H36.1588V12.5871ZM43.761 16.5194C44.6635 16.931 45.3502 17.7723 45.5267 18.6594C45.5856 18.9429 45.203 20.3512 43.2608 26.9081L40.9163 34.8185L40.8673 29.1212L40.8182 23.4239L40.5043 22.8112C40.0923 21.9881 39.5234 21.4394 38.6798 21.0462C38.307 20.8724 37.9343 20.7261 37.8656 20.7261C37.7479 20.7261 37.7283 20.3146 37.7283 18.4765V16.236L40.5043 16.2634C43.2215 16.2908 43.2804 16.2908 43.761 16.5194ZM15.0196 20.2689L16.9913 22.0979H27.1244C34.7953 22.0979 37.3653 22.1253 37.6694 22.2076C38.2089 22.3539 39.0231 23.113 39.1801 23.6159C39.3468 24.1555 39.3468 40.5249 39.1801 41.0645C39.0231 41.5674 38.2089 42.3265 37.6694 42.4728C37.0809 42.6283 3.84674 42.6283 3.25818 42.4728C2.71867 42.3265 1.90449 41.5674 1.74754 41.0645C1.58078 40.5158 1.58078 20.5066 1.74754 19.9579C1.89468 19.4916 2.71867 18.7051 3.19932 18.5588C3.42494 18.4948 5.13177 18.4582 8.30019 18.449L13.0479 18.4399L15.0196 20.2689Z" fill="#172667"/>
<path d="M15.0189 3.15852C14.1164 3.37799 13.3218 3.98156 12.9098 4.76803C12.7038 5.1704 12.6646 5.38074 12.6352 6.47813C12.5959 7.85902 12.7137 8.44429 13.1551 9.057C13.469 9.48682 13.469 9.88005 13.1551 10.1635C12.9491 10.3647 12.8314 10.3922 12.2134 10.3922C11.2128 10.3922 10.791 10.5385 10.2123 11.078C9.56485 11.6725 9.47656 11.9834 9.47656 13.538V14.7817H10.2613H11.0461V13.5472C11.0461 12.3492 11.0559 12.2943 11.2913 12.084C11.4973 11.8828 11.615 11.8554 12.2918 11.8554C13.4395 11.8554 14.2635 11.4347 14.705 10.6208C14.8521 10.3556 14.8521 10.3556 15.7546 10.3464H16.657L16.8434 10.6757C17.0788 11.1146 17.7164 11.6176 18.1971 11.7456C18.4031 11.8096 18.8936 11.8554 19.2761 11.8554C19.8941 11.8554 20.0118 11.8828 20.2178 12.084C20.4532 12.2943 20.463 12.3492 20.463 13.5472V14.7817H21.2478H22.0325V13.538C22.0325 11.9834 21.9443 11.6725 21.2968 11.078C20.7181 10.5385 20.2963 10.3922 19.2957 10.3922C18.6777 10.3922 18.56 10.3647 18.354 10.1635C18.0401 9.88005 18.0401 9.48682 18.354 9.057C18.7955 8.44429 18.923 7.84987 18.8739 6.46898C18.8347 5.26185 18.8249 5.20698 18.5012 4.64914C17.9519 3.69807 17.0984 3.18595 15.9606 3.12194C15.6074 3.10365 15.1856 3.11279 15.0189 3.15852ZM16.6178 4.78631C17.226 5.20698 17.275 5.3533 17.275 6.73419C17.275 7.86816 17.2554 8.02363 17.069 8.25225C16.6864 8.73693 16.3725 8.88325 15.7546 8.88325C15.1366 8.88325 14.8227 8.73693 14.4401 8.25225C14.2635 8.04191 14.2243 7.84073 14.2047 6.99025C14.1851 6.44155 14.1949 5.84713 14.2243 5.67338C14.3028 5.29843 14.7148 4.83204 15.1169 4.66743C15.5093 4.49368 16.2941 4.55769 16.6178 4.78631Z" fill="#172667"/>
<path d="M23.8487 3.30487C23.6035 3.52435 23.6035 3.54264 23.6035 5.27103C23.6035 6.99943 23.6035 7.01772 23.8487 7.2372L24.0842 7.46582H27.5273H30.9703L31.2058 7.2372C31.451 7.01772 31.451 6.99943 31.451 5.27103C31.451 3.54264 31.451 3.52435 31.2058 3.30487L30.9703 3.07625H27.5273H24.0842L23.8487 3.30487ZM29.8815 5.27103V6.00263H27.5273H25.173V5.27103V4.53944H27.5273H29.8815V5.27103Z" fill="#172667"/>
<path d="M23.6035 9.66098V10.3926H27.5273H31.451V9.66098V8.92939H27.5273H23.6035V9.66098Z" fill="#172667"/>
<path d="M23.6035 12.5873V13.3188H27.5273H31.451V12.5873V11.8557H27.5273H23.6035V12.5873Z" fill="#172667"/>
<path d="M23.6035 15.5135V16.2451H27.5273H31.451V15.5135V14.7819H27.5273H23.6035V15.5135Z" fill="#172667"/>
<path d="M23.6035 18.4398V19.1714H27.5273H31.451V18.4398V17.7082H27.5273H23.6035V18.4398Z" fill="#172667"/>
<path d="M16.7858 24.5212C16.5405 24.7407 16.5405 24.7407 16.5405 26.716V28.6822H14.4315C12.3127 28.6822 12.3127 28.6822 12.0773 28.9108L11.832 29.1303V32.3401V35.55L12.0773 35.7695C12.3127 35.9981 12.3127 35.9981 14.4315 35.9981H16.5405V37.9643C16.5405 39.9396 16.5405 39.9396 16.7858 40.1591L17.0212 40.3877H20.4643H23.9074L24.1428 40.1591C24.388 39.9396 24.388 39.9396 24.388 37.9643V35.9981H26.497C28.6159 35.9981 28.6159 35.9981 28.8513 35.7695L29.0965 35.55V32.3401V29.1303L28.8513 28.9108C28.6159 28.6822 28.6159 28.6822 26.497 28.6822H24.388V26.716C24.388 24.7407 24.388 24.7407 24.1428 24.5212L23.9074 24.2926H20.4643H17.0212L16.7858 24.5212ZM22.8185 27.7219C22.8185 29.6973 22.8185 29.6973 23.0638 29.9167C23.2992 30.1454 23.2992 30.1454 25.418 30.1454H27.527V32.3401V34.5349H25.418C22.5929 34.5349 22.8185 34.3246 22.8185 36.9583V38.9245H20.4643H18.11V36.9583C18.11 34.3246 18.3356 34.5349 15.5105 34.5349H13.4015V32.3401V30.1454H15.5105C18.3356 30.1454 18.11 30.3557 18.11 27.7219V25.7558H20.4643H22.8185V27.7219Z" fill="#172667"/>
</svg>
