<svg width="44" height="47" viewBox="0 0 44 47" fill="none" xmlns="http://www.w3.org/2000/svg">
<path d="M20.7373 0.250086C17.5419 0.863527 15.0973 2.74047 13.7423 5.63372C12.5245 8.23398 12.5611 11.173 13.8338 13.8099C15.0698 16.3644 17.3588 18.223 20.1147 18.9097C21.2683 19.1935 23.246 19.1935 24.3996 18.9097C27.1556 18.223 29.4354 16.3735 30.6805 13.8099C31.9441 11.2096 31.9807 8.24313 30.7721 5.64287C29.5544 3.02431 27.3112 1.1382 24.5553 0.424047C23.4657 0.140216 21.717 0.0669692 20.7373 0.250086ZM24.07 1.86151C29.0233 3.05177 31.587 8.64599 29.2797 13.2605C28.3183 15.1833 26.652 16.6116 24.5461 17.2983C23.8228 17.5363 23.6672 17.5546 22.2572 17.5546C20.8472 17.5546 20.6915 17.5363 19.9682 17.2983C16.4158 16.1355 14.2092 12.9218 14.4106 9.2045C14.4747 8.02339 14.6487 7.29093 15.1248 6.27463C16.1502 4.04976 18.0821 2.43833 20.4077 1.86151C21.4057 1.62346 23.0537 1.62346 24.07 1.86151Z" fill="#172667"/>
<path d="M20.3513 3.72047C20.1591 3.9219 20.1499 4.01346 20.1499 5.68898V7.4469H18.4469H16.7439L16.4784 7.71242L16.2129 7.97794V9.63514C16.2129 11.2466 16.222 11.2923 16.4326 11.5396L16.6524 11.7959L18.4011 11.8234L20.1499 11.8509V13.6179C20.1499 15.9435 19.9851 15.7787 22.2649 15.7787C24.5172 15.7787 24.3616 15.9435 24.3616 13.5996V11.8509L26.1104 11.8234L27.8591 11.7959L28.0789 11.5396C28.2894 11.2923 28.2986 11.2466 28.2986 9.63514V7.97794L28.0331 7.71242L27.7676 7.4469H26.0646H24.3616V5.67982C24.3616 3.34508 24.5264 3.50989 22.2466 3.50989C20.5894 3.50989 20.5436 3.51904 20.3513 3.72047ZM22.8967 6.72359V8.47235L23.1622 8.73787L23.4277 9.00339H25.0849H26.7421V9.6443V10.2852H25.1032C23.4735 10.2852 23.4552 10.2852 23.1805 10.5233L22.8967 10.7613V12.5375V14.3138H22.2557H21.6148V12.5375V10.7613L21.331 10.5233C21.0563 10.2852 21.038 10.2852 19.4083 10.2852H17.7694V9.6443V9.00339H19.4266H21.0838L21.3493 8.73787L21.6148 8.47235V6.72359V4.97482H22.2557H22.8967V6.72359Z" fill="#172667"/>
<path d="M20.8373 21.7665C16.9094 22.6729 14.8311 26.8663 16.5798 30.3364C16.9827 31.1329 17.6053 31.8929 18.292 32.4331L18.9237 32.9275L18.2554 33.2662C16.9918 33.9255 15.7924 34.9509 14.9867 36.0771C14.7944 36.3426 14.6296 36.5623 14.6113 36.5623C14.6022 36.5623 14.474 36.3884 14.3367 36.1686C13.7232 35.2531 12.066 33.8064 11.3427 33.5775C11.1687 33.5226 11.2054 33.4768 11.6723 33.0282C12.7802 31.9753 13.2929 30.8033 13.302 29.3567C13.302 27.9284 12.8168 26.7473 11.8188 25.7585C10.8574 24.8246 9.56646 24.2935 8.22055 24.2935C5.91328 24.2935 3.82575 25.85 3.25809 28.0016C3.09328 28.6425 3.06582 29.8236 3.20315 30.4462C3.43205 31.4351 4.10043 32.5155 4.90614 33.1838L5.31815 33.5318L4.77796 33.8156C3.31303 34.603 1.96712 36.187 1.29874 37.9266C0.822637 39.1718 0.740234 39.8035 0.740234 42.3122C0.740234 44.4272 0.74939 44.6195 0.914195 44.8118L1.08816 45.0315L7.04861 45.059L13.0091 45.0773V45.8189C13.0091 46.4781 13.0365 46.5697 13.238 46.7711L13.4577 47H22.2565H31.0552L31.275 46.7711C31.4764 46.5697 31.5039 46.4781 31.5039 45.8189V45.0773L37.4643 45.059L43.4248 45.0315L43.5987 44.8118C43.7635 44.6195 43.7727 44.4272 43.7727 42.3122C43.7727 39.8035 43.6903 39.1718 43.2142 37.9266C42.5458 36.187 41.1999 34.603 39.735 33.8156L39.1948 33.5318L39.6068 33.1838C40.4125 32.5155 41.0809 31.4351 41.3098 30.4462C41.4379 29.8877 41.4288 28.7616 41.3006 28.1847C40.9161 26.4451 39.3779 24.8978 37.5833 24.4309C34.9648 23.7533 32.1173 25.3739 31.3665 27.9833C31.1468 28.7433 31.1651 30.0342 31.4031 30.8033C31.6412 31.5633 32.1814 32.3964 32.8406 33.0282C33.3076 33.4768 33.3442 33.5226 33.1702 33.5775C32.4469 33.8064 30.7897 35.2531 30.1763 36.1686C30.0389 36.3884 29.9107 36.5623 29.9016 36.5623C29.8924 36.5623 29.6727 36.2785 29.4072 35.9306C28.5831 34.8227 27.1823 33.6783 25.9737 33.1197L25.461 32.8909L26.0012 32.4788C27.402 31.4259 28.2627 29.7962 28.3634 28.0016C28.5099 25.3281 26.7886 22.8469 24.17 21.9588C23.2361 21.6475 21.7346 21.5651 20.8373 21.7665ZM23.5383 23.3505C25.4793 23.8815 26.8435 25.676 26.8435 27.6995C26.8435 29.0546 26.3949 30.0617 25.3603 31.0139C23.0622 33.1472 19.3357 32.4514 17.9349 29.6405C17.587 28.9355 17.5595 28.8073 17.5137 27.965C17.4771 27.2142 17.5046 26.9487 17.6694 26.4085C18.1638 24.7696 19.7111 23.4603 21.4507 23.1948C22.055 23.1033 22.8699 23.1582 23.5383 23.3505ZM8.87978 25.85C9.98763 26.0606 11.0314 26.8846 11.5258 27.9284C11.7364 28.3862 11.773 28.5785 11.773 29.3292C11.773 30.08 11.7364 30.2723 11.5258 30.7209C10.8391 32.1859 9.11783 33.1197 7.63458 32.8268C6.38023 32.5704 5.27237 31.7097 4.85121 30.6294C4.53075 29.842 4.54906 28.6517 4.87867 27.9284C5.59283 26.3994 7.24088 25.5387 8.87978 25.85ZM36.979 25.85C37.7115 25.9873 38.2792 26.2986 38.8835 26.9029C39.6251 27.6354 39.8723 28.2488 39.8723 29.3292C39.8723 30.3272 39.6342 30.9681 39.0025 31.664C38.4714 32.2316 37.6932 32.662 36.8783 32.8268C35.3951 33.1197 33.6738 32.1859 32.9871 30.7209C32.7765 30.2723 32.7399 30.08 32.7399 29.3292C32.7399 28.5785 32.7765 28.3862 32.9871 27.9284C33.7013 26.3994 35.3493 25.5387 36.979 25.85ZM24.3165 34.0903C26.3491 34.7312 28.0887 36.251 29.0776 38.2562C29.8192 39.7669 30.0389 41.0029 30.0389 43.7222V45.4435H22.2473H14.4557L14.5015 43.2186C14.5381 41.6347 14.593 40.8107 14.7029 40.3162C15.4262 37.0751 17.7243 34.6579 20.7457 33.9438C21.5789 33.7515 23.4925 33.8247 24.3165 34.0903ZM9.31926 34.5023C10.4546 34.7129 11.4434 35.2531 12.3224 36.1412C12.8076 36.6356 13.1739 37.1025 13.4028 37.542L13.7507 38.2012L13.5126 38.9429C13.1647 40.0507 13.0091 41.122 13.0091 42.3855V43.5208H7.59796H2.1777L2.23264 41.6621C2.26926 40.1331 2.31504 39.6936 2.47984 39.126C3.05666 37.1208 4.53991 35.427 6.27952 34.7678C7.36906 34.3649 8.20224 34.2917 9.31926 34.5023ZM38.0503 34.7129C38.9933 35.0425 39.6617 35.482 40.4491 36.3151C41.1633 37.0659 41.7309 38.0731 42.0331 39.126C42.1979 39.6936 42.2437 40.1331 42.2803 41.6621L42.3352 43.5208H36.915H31.5039V42.3855C31.5039 41.122 31.3482 40.0507 31.0003 38.952L30.7622 38.2104L31.1102 37.542C31.339 37.0934 31.687 36.6447 32.1905 36.1412C33.802 34.5206 35.9536 33.9896 38.0503 34.7129Z" fill="#172667"/>
</svg>
