<svg width="25" height="26" viewBox="0 0 25 26" fill="none" xmlns="http://www.w3.org/2000/svg">
<path d="M13.5774 2.75257C12.9941 2.37217 13.0536 1.49903 13.6682 1.18964C13.7265 1.1592 13.7914 1.13355 13.8509 1.11512C13.9057 1.09817 13.979 1.08 14.0469 1.08C14.115 1.08 14.2304 1.09933 14.3445 1.12091C14.4694 1.14453 14.624 1.17728 14.788 1.21446C15.115 1.2886 15.4881 1.38234 15.7466 1.45989C20.2312 2.79967 23.6957 6.58463 24.6265 11.1628C24.689 11.4664 24.727 11.6941 24.7091 11.8783C24.688 12.0939 24.5938 12.2338 24.4663 12.3668L24.466 12.3671C24.1373 12.7087 23.6443 12.7211 23.2673 12.4459L23.2673 12.4459L23.2655 12.4446C23.1554 12.3627 23.0665 12.2791 22.9977 12.1172C22.9406 11.9831 22.8972 11.7934 22.8373 11.5116C22.3908 9.41791 21.4325 7.61795 19.97 6.11532C18.9552 5.07365 17.8677 4.30333 16.6437 3.74689C15.7845 3.35758 15.3177 3.20334 14.3581 2.99259L14.3568 2.99229C14.1903 2.95477 14.0266 2.91241 13.8948 2.87366C13.8291 2.85433 13.7692 2.83529 13.7199 2.81761C13.6786 2.80278 13.6217 2.78111 13.5787 2.75347L13.5774 2.75257Z" fill="#475467" stroke="#475467" stroke-width="0.5"/>
<path d="M6.92304 10.4716L6.92309 10.4716C6.82871 10.6604 6.81343 10.8949 6.84027 11.1224C6.86775 11.3553 6.94242 11.6081 7.05721 11.8527L7.05734 11.8529C7.6623 13.1379 8.63203 14.4199 10.0895 15.8729L6.92304 10.4716ZM6.92304 10.4716L6.92547 10.467M6.92304 10.4716L6.92547 10.467M6.92547 10.467C6.94354 10.4327 6.97029 10.3982 6.98833 10.3756C7.0105 10.3478 7.03829 10.315 7.07003 10.2787C7.13376 10.206 7.21886 10.1132 7.31884 10.0072C7.519 9.79489 7.78331 9.52486 8.06556 9.24719C8.37786 8.93716 8.6143 8.69778 8.79102 8.50406C8.96931 8.30862 9.07661 8.17048 9.13849 8.06278C9.19721 7.96057 9.20828 7.89741 9.20623 7.84645C9.20387 7.78799 9.1833 7.71633 9.12844 7.59437C9.12821 7.5945 9.12148 7.58335 9.10098 7.55668C9.07658 7.52491 9.04181 7.48269 8.99675 7.4304C8.90692 7.32617 8.78306 7.18984 8.63483 7.03131C8.33879 6.71469 7.95148 6.31586 7.55839 5.92078C7.1653 5.52571 6.76801 5.13596 6.45212 4.8374C6.29397 4.68792 6.15774 4.56274 6.05335 4.47161C6.001 4.42591 5.95854 4.39044 5.9264 4.36533C5.89892 4.34386 5.88715 4.33652 5.8868 4.33601C5.70328 4.25258 5.5098 4.25663 5.32642 4.35487L5.32647 4.35495L5.32086 4.35777C5.3209 4.35783 5.31246 4.36265 5.29297 4.37697C5.27238 4.3921 5.24548 4.41335 5.21192 4.44142C5.14488 4.49749 5.05776 4.57534 4.95198 4.67411C4.74075 4.87133 4.46195 5.14554 4.13273 5.48158L4.13192 5.48239C3.73054 5.88834 3.46435 6.16479 3.28773 6.36252C3.10723 6.56458 3.03661 6.66699 3.00776 6.72761L3.00659 6.72999M6.92547 10.467L3.00659 6.72999M3.00659 6.72999C2.77637 7.20054 2.7041 7.83702 2.81917 8.64581M3.00659 6.72999L2.81917 8.64581M2.81917 8.64581C2.934 9.45294 3.23285 10.4127 3.72189 11.5125L2.81917 8.64581ZM23.0275 21.3219L23.0269 21.323C22.8286 21.7146 22.6941 21.8697 21.7792 22.8072C21.2329 23.3714 20.7013 23.904 20.5959 23.9942C19.8292 24.6576 18.8146 24.9745 17.6916 24.9122C16.1327 24.8321 14.4361 24.2819 12.4566 23.2277C8.95771 21.3653 5.99444 18.6689 3.73731 15.2879C3.13884 14.3948 2.92385 14.0256 2.45412 13.0954C1.33697 10.8978 0.812181 8.96446 0.950404 7.40998C0.997679 6.86885 1.09176 6.44205 1.31153 6.01254C1.52829 5.58889 1.8596 5.17809 2.35399 4.65609C3.711 3.21765 4.24283 2.75688 4.89911 2.54655C5.09439 2.48336 5.34905 2.45483 5.58954 2.45242C5.83052 2.45001 6.08536 2.47355 6.28174 2.53082L6.28283 2.53114C6.42252 2.57258 6.55061 2.61537 6.68871 2.68784C6.82621 2.76 6.96451 2.85667 7.1343 2.99861C7.46829 3.27781 7.95456 3.75874 8.83309 4.63728C9.60673 5.41091 10.0377 5.84525 10.2936 6.12375C10.5544 6.40765 10.647 6.54431 10.7362 6.72267L10.7372 6.72477C11.0517 7.36871 11.1003 7.99373 10.8767 8.64429L10.8761 8.64583C10.7038 9.13669 10.4316 9.45824 9.50444 10.3944C9.50442 10.3945 9.5044 10.3945 9.50438 10.3945L8.75623 11.1504L8.85138 11.3359L8.85139 11.3358L8.85235 11.3378C9.32394 12.2765 10.2072 13.4044 11.2292 14.4333C12.2508 15.4617 13.3913 16.3711 14.3644 16.8842L14.3658 16.885L14.655 17.0398L15.4674 16.2391C15.4675 16.239 15.4676 16.2389 15.4677 16.2388C15.7297 15.9792 15.9908 15.7307 16.2015 15.5379C16.3068 15.4415 16.4006 15.3581 16.4761 15.2938C16.5456 15.2346 16.6149 15.1783 16.6641 15.1488L16.6641 15.1487L16.6678 15.1466C17.4171 14.7142 18.2195 14.6774 18.9926 15.0412L18.9929 15.0413C19.1838 15.1314 19.3136 15.2107 19.5969 15.4693C19.8709 15.7194 20.3037 16.1512 21.1019 16.9516C21.9245 17.7743 22.3545 18.2053 22.6009 18.4774C22.8587 18.7619 22.9296 18.8887 23.0326 19.0972L23.0332 19.0984C23.2173 19.4765 23.314 19.8437 23.3127 20.2167C23.3114 20.5898 23.2121 20.9526 23.0275 21.3219ZM13.8 18.6592C12.5371 18.0113 11.2946 17.0779 10.0898 15.8731L3.72195 11.5126C5.24294 14.928 8.25662 18.417 11.548 20.5722C13.0995 21.5854 14.9767 22.4922 16.1739 22.8158C17.8438 23.2672 18.7575 23.1602 19.3874 22.6091L19.3885 22.6081C19.6314 22.398 20.1175 21.9114 20.561 21.4468C20.7813 21.2159 20.9882 20.9936 21.1456 20.8179C21.2244 20.7299 21.2896 20.655 21.3374 20.5972C21.3784 20.5477 21.3974 20.5215 21.4035 20.513C21.4049 20.5112 21.4056 20.5102 21.4058 20.51C21.4992 20.3199 21.4999 20.1071 21.4078 19.9166C21.4058 19.914 21.3986 19.904 21.3826 19.8842C21.3594 19.8556 21.3264 19.8171 21.284 19.7692C21.1995 19.6736 21.0828 19.5467 20.9433 19.3981C20.6645 19.1011 20.2989 18.722 19.926 18.342C19.5531 17.962 19.1741 17.5822 18.8685 17.284C18.7156 17.1348 18.5821 17.0068 18.4773 16.9098C18.3671 16.8077 18.3019 16.7523 18.279 16.7365L18.2776 16.7355C18.2082 16.6869 18.0957 16.6479 17.9688 16.6359C17.8467 16.6244 17.7448 16.641 17.6846 16.6678C17.6814 16.6702 17.6755 16.6746 17.6664 16.6818C17.6466 16.6975 17.6197 16.72 17.5858 16.7494C17.5182 16.8081 17.4285 16.8893 17.3225 16.9876C17.111 17.184 16.8391 17.4445 16.5576 17.7214C16.2736 18.0009 15.997 18.266 15.7799 18.4675C15.6715 18.5682 15.5767 18.6541 15.5027 18.7184C15.4659 18.7504 15.4326 18.7784 15.4046 18.8006C15.3818 18.8187 15.3471 18.8456 15.3129 18.8636L15.3129 18.8636L15.3083 18.866C15.1617 18.9392 14.9607 18.9742 14.7609 18.9744C14.6197 18.9768 14.5049 18.972 14.3521 18.9201C14.2162 18.8739 14.0518 18.7906 13.8 18.6592Z" fill="#475467" stroke="#475467" stroke-width="0.5"/>
<path d="M13.4326 5.44931L13.4326 5.4493L13.4346 5.44808C13.5731 5.36437 13.7132 5.32329 13.8986 5.32712C14.0668 5.33059 14.2733 5.37127 14.5481 5.43714L14.5488 5.43731C16.8373 5.99297 18.7399 7.51901 19.7896 9.63681C19.9962 10.0477 20.186 10.5572 20.3159 11.0082C20.3809 11.2342 20.4322 11.4499 20.4629 11.6348C20.4918 11.809 20.508 11.9864 20.4821 12.1207C20.422 12.4502 20.1799 12.6805 19.9071 12.7793C19.6339 12.8782 19.3002 12.8567 19.0377 12.6498C18.7976 12.4626 18.72 12.2343 18.6242 11.8052L18.6239 11.8039C18.3923 10.742 17.8631 9.75228 17.0776 8.93166L17.0769 8.93095C16.2495 8.05978 15.2754 7.50393 14.0562 7.20463L14.0557 7.20449C13.785 7.13738 13.5912 7.08357 13.4491 7.01145C13.2847 6.928 13.1943 6.8235 13.1136 6.69099C12.853 6.26688 13.0158 5.70673 13.4326 5.44931Z" fill="#475467" stroke="#475467" stroke-width="0.5"/>
</svg>
