<svg width="44" height="44" viewBox="0 0 44 44" fill="none" xmlns="http://www.w3.org/2000/svg">
<path d="M42.2394 15.7395H28.0795V1.57953C28.0795 0.999529 27.6095 0.519531 27.0195 0.519531H16.7195C16.1395 0.519531 15.6595 0.989529 15.6595 1.57953V15.7395H1.49945C0.919451 15.7395 0.439453 16.2095 0.439453 16.7995V27.0995C0.439453 27.6795 0.909451 28.1595 1.49945 28.1595H15.6595V42.3195C15.6595 42.8995 16.1295 43.3795 16.7195 43.3795H27.0195C27.5995 43.3795 28.0795 42.9095 28.0795 42.3195V28.1595H42.2394C42.8194 28.1595 43.2995 27.6895 43.2995 27.0995V16.7995C43.2895 16.2095 42.8194 15.7395 42.2394 15.7395Z" fill="#BCDFF3"/>
</svg>
