<svg width="45" height="44" viewBox="0 0 45 44" fill="none" xmlns="http://www.w3.org/2000/svg">
<path d="M8.22874 0.291502C8.05387 0.388654 7.79156 0.612102 7.64583 0.79669C7.39324 1.12701 7.38352 1.19501 7.35437 2.57456L7.32523 4.00269L4.97416 4.04155C2.63281 4.0707 2.62309 4.0707 2.04018 4.34272C1.2824 4.69247 0.62177 5.3531 0.272024 6.10117L0 6.69379V24.0353V41.3769L0.272024 41.9598C0.62177 42.7176 1.2824 43.3782 2.03047 43.728L2.62309 44H22.4906H42.3581L42.9507 43.728C43.6988 43.3782 44.3594 42.7176 44.7092 41.9598L44.9812 41.3769V24.0353V6.69379L44.7092 6.10117C44.3594 5.3531 43.6988 4.69247 42.941 4.34272C42.3581 4.0707 42.3484 4.0707 40.007 4.04155L37.6462 4.00269V2.69115C37.6462 1.19501 37.5491 0.874411 36.9856 0.446944C36.6553 0.19435 36.6067 0.184635 35.3146 0.184635C34.0225 0.184635 33.9739 0.19435 33.6436 0.446944C33.0801 0.884127 32.983 1.19501 32.983 2.70086V4.02212H22.4906H11.9982V2.70086C11.9982 1.19501 11.9011 0.884127 11.3376 0.446944C11.0073 0.19435 10.9296 0.184635 9.77345 0.15549C8.7825 0.136059 8.49105 0.165205 8.22874 0.291502ZM10.4438 4.79934V7.90819H9.66658H8.88937V4.79934V1.69048H9.66658H10.4438V4.79934ZM36.0918 4.79934V7.90819H35.3146H34.5374V4.79934V1.69048H35.3146H36.0918V4.79934ZM7.33494 6.89781C7.33494 8.40366 7.4321 8.71454 7.99558 9.15173C8.32589 9.40432 8.37447 9.41404 9.66658 9.41404C10.9587 9.41404 11.0073 9.40432 11.3376 9.15173C11.9011 8.71454 11.9982 8.40366 11.9982 6.89781V5.57655H22.4906H32.983V6.89781C32.983 8.40366 33.0801 8.71454 33.6436 9.15173C33.9739 9.40432 34.0225 9.41404 35.3146 9.41404C36.6067 9.41404 36.6553 9.40432 36.9856 9.15173C37.5491 8.71454 37.6462 8.40366 37.6462 6.89781V5.57655H39.7836C41.5032 5.57655 41.9986 5.60569 42.2901 5.72228C42.7661 5.92629 43.077 6.22746 43.2907 6.69379C43.4559 7.04354 43.4753 7.36414 43.4753 9.62777V12.1829H22.4906H1.50585V9.65691C1.50585 6.94639 1.54471 6.69379 2.02075 6.16917C2.50651 5.64455 2.82711 5.57655 5.17818 5.57655H7.33494V6.89781ZM43.4559 27.4745L43.4268 41.2117L43.1353 41.6295C42.9799 41.8529 42.6495 42.1444 42.4164 42.2707L41.9889 42.4942L22.3837 42.4747L2.78825 42.4456L2.36078 42.1541C2.1179 41.9792 1.8556 41.6781 1.7293 41.4255L1.50585 40.998V27.3676V13.7373H22.4906H43.4753L43.4559 27.4745Z" fill="#172667"/>
<path d="M5.41207 17.3321C5.29549 17.3807 5.14976 17.5361 5.10119 17.6722C4.96518 18.0413 4.97489 25.8037 5.1109 26.1049C5.16919 26.2409 5.32464 26.3964 5.46065 26.4547C5.61609 26.5227 6.9665 26.5615 9.66731 26.5615C12.3681 26.5615 13.7185 26.5227 13.874 26.4547C14.01 26.3964 14.1654 26.2409 14.2237 26.1049C14.3694 25.7746 14.3694 18.0219 14.2237 17.6916C14.1654 17.5556 14.01 17.4001 13.874 17.3418C13.5825 17.2058 5.74239 17.2058 5.41207 17.3321ZM12.7762 21.8982V25.0071H9.66731H6.55846V21.8982V18.7894H9.66731H12.7762V21.8982Z" fill="#172667"/>
<path d="M18.2363 17.3321C18.1197 17.3807 17.974 17.5361 17.9254 17.6722C17.7894 18.0413 17.7991 25.8037 17.9351 26.1049C17.9934 26.2409 18.1489 26.3964 18.2849 26.4547C18.4403 26.5227 19.7907 26.5615 22.4915 26.5615C25.1923 26.5615 26.5428 26.5227 26.6982 26.4547C26.8342 26.3964 26.9896 26.2409 27.0479 26.1049C27.1937 25.7746 27.1937 18.0219 27.0479 17.6916C26.9896 17.5556 26.8342 17.4001 26.6982 17.3418C26.4067 17.2058 18.5666 17.2058 18.2363 17.3321ZM25.6004 21.8982V25.0071H22.4915H19.3827V21.8982V18.7894H22.4915H25.6004V21.8982Z" fill="#172667"/>
<path d="M31.0586 17.3321C30.942 17.3807 30.7962 17.5361 30.7477 17.6722C30.6117 18.0413 30.6214 25.8037 30.7574 26.1049C30.8157 26.2409 30.9711 26.3964 31.1071 26.4547C31.2626 26.5227 32.613 26.5615 35.3138 26.5615C38.0146 26.5615 39.365 26.5227 39.5205 26.4547C39.6565 26.3964 39.8119 26.2409 39.8702 26.1049C40.0159 25.7746 40.0159 18.0219 39.8702 17.6916C39.8119 17.5556 39.6565 17.4001 39.5205 17.3418C39.229 17.2058 31.3889 17.2058 31.0586 17.3321ZM38.4226 21.8982V25.0071H35.3138H32.2049V21.8982V18.7894H35.3138H38.4226V21.8982Z" fill="#172667"/>
<path d="M18.361 29.4951C17.9238 29.7283 17.9238 29.6894 17.9238 34.0612V38.229L18.1667 38.4622L18.3999 38.7051H22.5288C24.7924 38.7051 26.7258 38.6759 26.8132 38.6468C27.2115 38.4913 27.2504 38.161 27.2504 35.2465V32.4485L27.9693 31.7102C28.3676 31.3021 28.7271 30.8552 28.7562 30.7095C28.8437 30.3889 28.6105 30.0003 28.251 29.8351C28.047 29.7477 27.9402 29.7574 27.6293 29.9323C27.2698 30.1266 27.2504 30.1266 27.2018 29.9517C27.1629 29.8546 27.0269 29.6797 26.8909 29.5728C26.648 29.3882 26.512 29.3785 22.5968 29.3785C19.8571 29.3882 18.497 29.4174 18.361 29.4951ZM25.696 31.3993C25.696 31.7393 25.5988 31.8559 24.093 33.3617L22.49 34.955L21.295 33.7698C20.2652 32.7594 20.0514 32.5845 19.7891 32.5845H19.4783V31.8073V31.0301H22.5871H25.696V31.3993ZM22.1791 36.762C22.5968 36.9661 22.898 36.7815 24.2678 35.4214L25.5988 34.1001V35.6254V37.1507H22.5385H19.4783L19.488 35.6157V34.0904L20.7218 35.3631C21.4019 36.0723 22.0625 36.694 22.1791 36.762Z" fill="#172667"/>
<path d="M5.41207 29.7672C5.29549 29.8158 5.14976 29.9712 5.10119 30.1072C4.96518 30.4764 4.97489 38.2388 5.1109 38.54C5.16919 38.676 5.32464 38.8314 5.46065 38.8897C5.79096 39.0355 13.5437 39.0355 13.874 38.8897C14.01 38.8314 14.1654 38.676 14.2237 38.54C14.3694 38.2097 14.3694 30.457 14.2237 30.1267C14.1654 29.9906 14.01 29.8352 13.874 29.7769C13.5825 29.6409 5.74239 29.6409 5.41207 29.7672ZM12.7762 34.3333V37.4422H9.66731H6.55846V34.3333V31.2245H9.66731H12.7762V34.3333Z" fill="#172667"/>
<path d="M31.0586 29.7672C30.942 29.8158 30.7962 29.9712 30.7477 30.1072C30.6117 30.4764 30.6214 38.2388 30.7574 38.54C30.8157 38.676 30.9711 38.8314 31.1071 38.8897C31.4374 39.0355 39.1901 39.0355 39.5205 38.8897C39.9479 38.6954 39.9771 38.472 39.9771 35.5283V32.74L40.8029 31.8948C41.3372 31.3605 41.6286 30.9816 41.6286 30.8456C41.6286 30.5541 41.1235 30.0586 40.8223 30.0586C40.6863 30.0586 40.4434 30.1655 40.2977 30.2918L40.0159 30.5347L39.8994 30.2141C39.8313 30.0392 39.6662 29.8449 39.5302 29.7866C39.229 29.6409 31.3986 29.6312 31.0586 29.7672ZM38.4226 31.6908V32.1474L36.8877 33.6824L35.3624 35.2077L34.1091 34.0224C33.0016 32.9732 32.8267 32.8372 32.5353 32.8469L32.2049 32.8566V32.0405V31.2245H35.3138H38.4226V31.6908ZM35.1875 37.1021C35.547 37.1993 35.9064 36.9273 37.1888 35.5963L38.4226 34.3139V35.878V37.4422H35.3138H32.2049V35.8683V34.2847L33.5942 35.6643C34.352 36.4124 35.0709 37.0633 35.1875 37.1021Z" fill="#172667"/>
</svg>
